<svg xmlns="http://www.w3.org/2000/svg" xmlns:xlink="http://www.w3.org/1999/xlink" viewBox="0 0 89.9 41.93"><defs><clipPath id="a" transform="translate(-10.06 -58.06)"><path d="M18.86,87.39a1,1,0,0,0,.58-.14,1.67,1.67,0,0,0,.68-1.68,2.3,2.3,0,0,0-2.48-2.17c-1.73.06-2.64,1.37-2.58,3.15a3.57,3.57,0,0,0,1.52,3,4.74,4.74,0,0,0,3,.78H20c.86,0,1,0,1.56,0,3.41-.16,4.47-1.23,4.71-6.36V67.52H30.2V90.3h5.56V63.06H21.05V86.63S21,88,18.86,87.39" style="fill:none;clip-rule:evenodd"/></clipPath><clipPath id="b" transform="translate(-10.06 -58.06)"><rect width="375" height="667" style="fill:none"/></clipPath><clipPath id="c" transform="translate(-10.06 -58.06)"><path d="M51.37,84.58H45.74a79.05,79.05,0,0,0,1.67-15.94v-1.1h4Zm5.86-21.52H41.64v.82a90.76,90.76,0,0,1-.73,11.93,47.92,47.92,0,0,1-1.86,8.8H37.62V95h4.84V90.3H53.81V95h4.86V84.58H57.23Z" style="fill:none;clip-rule:evenodd"/></clipPath><clipPath id="e" transform="translate(-10.06 -58.06)"><polyline points="60.85 90.3 67 90.3 67 67.62 71.06 67.62 71.06 90.3 77.02 90.3 77.02 63.06 60.85 63.06 60.85 90.3" style="fill:none;clip-rule:evenodd"/></clipPath><clipPath id="g" transform="translate(-10.06 -58.06)"><path d="M89.48,72a3.54,3.54,0,0,1-.38,2,1.62,1.62,0,0,1-1.34.48l-2.1,0V67.54h2.09a1.84,1.84,0,0,1,1.35.4,3,3,0,0,1,.38,1.9Zm5.2-5.09a4.52,4.52,0,0,0-1.05-2.08,4.92,4.92,0,0,0-2.32-1.31,16.49,16.49,0,0,0-4.41-.45H79.82V90.3h5.84v-11h3.07a9.22,9.22,0,0,0,3.73-.64,3.67,3.67,0,0,0,2-1.83,9.94,9.94,0,0,0,.53-3.8V70.7A18.74,18.74,0,0,0,94.68,66.92Z" style="fill:none;clip-rule:evenodd"/></clipPath></defs><title>Asset 1ldpr</title><g style="clip-path:url(#a)"><g style="clip-path:url(#b)"><rect width="30.7" height="37.25" style="fill:#fff"/></g></g><g style="clip-path:url(#c)"><g style="clip-path:url(#b)"><rect x="22.56" width="31.04" height="41.93" style="fill:#fff"/></g></g><g style="clip-path:url(#e)"><g style="clip-path:url(#b)"><rect x="45.79" width="26.17" height="37.24" style="fill:#fff"/></g></g><g style="clip-path:url(#g)"><g style="clip-path:url(#b)"><rect x="64.76" y="0.02" width="25.14" height="37.22" style="fill:#fff"/></g></g></svg>