<svg xmlns="http://www.w3.org/2000/svg" xmlns:xlink="http://www.w3.org/1999/xlink" viewBox="0 0 149.82 64.87"><defs><style>.a,.b{fill:none;}.a{clip-rule:evenodd;}.c{clip-path:url(#a);}.d{clip-path:url(#b);}.e{fill:#fff;}.f{clip-path:url(#c);}.g{clip-path:url(#e);}.h{clip-path:url(#g);}</style><clipPath id="a" transform="translate(-275.11 -27.11)"><path class="a" d="M286.75,73.91a1.77,1.77,0,0,0,1-.23c.81-.54,1.26-1.27,1.2-2.89a4,4,0,0,0-4.34-3.73c-3,.1-4.62,2.36-4.52,5.41a6.12,6.12,0,0,0,2.66,5.1A8.41,8.41,0,0,0,288,78.92h.7c1.5,0,1.82,0,2.74,0,6-.28,7.83-2.12,8.24-10.94V39.76h6.87V78.92h9.73V32.11H290.59V72.61s-.09,2.37-3.84,1.3"/></clipPath><clipPath id="b" transform="translate(-275.11 -27.11)"><rect class="b" width="1440" height="1759"/></clipPath><clipPath id="c" transform="translate(-275.11 -27.11)"><path class="a" d="M343.64,69.1h-9.85a133.54,133.54,0,0,0,2.92-27.39V39.82h6.93Zm10.25-37H326.62v1.42A153.24,153.24,0,0,1,325.35,54a81.09,81.09,0,0,1-3.26,15.13h-2.51V87h8.47V78.92h19.86V87h8.5V69.1H353.9Z"/></clipPath><clipPath id="e" transform="translate(-275.11 -27.11)"><polyline class="a" points="360.23 78.92 371 78.92 371 39.93 378.11 39.93 378.11 78.92 388.53 78.92 388.53 32.11 360.23 32.11 360.23 78.92"/></clipPath><clipPath id="g" transform="translate(-275.11 -27.11)"><path class="a" d="M410.34,47.49a6,6,0,0,1-.66,3.42,2.86,2.86,0,0,1-2.35.82c-.25,0-3.32,0-3.67,0V39.8l3.65,0a3.26,3.26,0,0,1,2.36.69c.51.48.67,1.66.67,3.26Zm9.11-8.75a7.71,7.71,0,0,0-1.84-3.57,8.66,8.66,0,0,0-4.06-2.25,29.36,29.36,0,0,0-7.72-.78H393.44V78.92h10.22V60.08H409a16.39,16.39,0,0,0,6.53-1.1A6.37,6.37,0,0,0,419,55.83a16.81,16.81,0,0,0,.93-6.53V45.23A31.64,31.64,0,0,0,419.45,38.74Z"/></clipPath></defs><title>Asset 5zaq</title><g class="c"><g class="d"><rect class="e" width="46.23" height="56.83"/></g></g><g class="f"><g class="d"><rect class="e" x="39.47" width="46.83" height="64.87"/></g></g><g class="g"><g class="d"><rect class="e" x="80.12" width="38.3" height="56.81"/></g></g><g class="h"><g class="d"><rect class="e" x="113.33" y="0.03" width="36.49" height="56.78"/></g></g></svg>