<svg xmlns="http://www.w3.org/2000/svg" viewBox="0 0 36.73 22.33"><title>Asset 3qwer</title><path d="M29.85,11s4.58-6.45,5-8.58c.15-.76-.18-1.18-1-1.18h-4a1.45,1.45,0,0,0-1.52,1,36,36,0,0,1-4.76,7.45c-.84.93-1.26,1.21-1.73,1.21s-.55-.31-.55-1.15V2.33c0-1-.12-1.33-1-1.33H14.06a.7.7,0,0,0-.79.67c0,1,1.48,1.19,1.48,3.82v5.42c0,1.09-.06,1.52-.58,1.52-1.36,0-4.61-4.7-6.42-10C7.39,1.3,7,1,6,1H2A1,1,0,0,0,1,2C1,3,2.24,7.94,7.12,14.52c3.27,4.42,7.58,6.82,11.45,6.82,2.36,0,2.94-.39,2.94-1.39V16.55c0-.85.33-1.21.82-1.21s1.51.18,3.76,2.39c2.67,2.55,2.85,3.61,4.3,3.61h4.45c.45,0,.88-.21.88-1,0-1-1.3-2.79-3.3-4.91-.82-1.09-2.15-2.27-2.58-2.82-.61-.64-.42-1,0-1.67" style="fill:none;stroke:#fff;stroke-miterlimit:10;stroke-width:2px"/></svg>