<svg xmlns="http://www.w3.org/2000/svg" xmlns:xlink="http://www.w3.org/1999/xlink" viewBox="0 0 1440 2000"><defs><clipPath id="83244633-9365-4049-9b02-3e958403e496" transform="translate(-9)"><path d="M286.75,75.91a1.77,1.77,0,0,0,1-.23c.81-.54,1.26-1.27,1.2-2.89a4,4,0,0,0-4.34-3.73c-3,.1-4.62,2.36-4.52,5.41a6.12,6.12,0,0,0,2.66,5.1A8.41,8.41,0,0,0,288,80.92h.7c1.5,0,1.82,0,2.74,0,6-.28,7.83-2.12,8.24-10.94V41.76h6.87V80.92h9.73V34.11H290.59V74.61s-.09,2.37-3.84,1.3" style="fill:none;clip-rule:evenodd"/></clipPath><clipPath id="443ab69b-ae30-42b3-98f0-f168d4bdbfec" transform="translate(-9)"><rect y="2" width="1440" height="1759" style="fill:none"/></clipPath><clipPath id="06312ca4-aaed-4e7d-b9bc-3d99327c8ce6" transform="translate(-9)"><path d="M343.64,71.1h-9.85a133.54,133.54,0,0,0,2.92-27.39V41.82h6.93Zm10.25-37H326.62v1.42A153.24,153.24,0,0,1,325.35,56a81.09,81.09,0,0,1-3.26,15.13h-2.51V89h8.47V80.92h19.86V89h8.5V71.1H353.9Z" style="fill:none;clip-rule:evenodd"/></clipPath><clipPath id="86a2d7f6-6fca-4cb7-8432-054072355309" transform="translate(-9)"><polyline points="360.23 80.92 371 80.92 371 41.93 378.11 41.93 378.11 80.92 388.53 80.92 388.53 34.11 360.23 34.11 360.23 80.92" style="fill:none;clip-rule:evenodd"/></clipPath><clipPath id="5adc3327-170e-4fc0-8fd4-e8ae0c313fb7" transform="translate(-9)"><path d="M410.34,49.49a6,6,0,0,1-.66,3.42,2.86,2.86,0,0,1-2.35.82c-.25,0-3.32,0-3.67,0V41.8l3.65,0a3.26,3.26,0,0,1,2.36.69c.51.48.67,1.66.67,3.26Zm9.11-8.75a7.71,7.71,0,0,0-1.84-3.57,8.66,8.66,0,0,0-4.06-2.25,29.36,29.36,0,0,0-7.72-.78H393.44V80.92h10.22V62.08H409a16.39,16.39,0,0,0,6.53-1.1A6.37,6.37,0,0,0,419,57.83a16.81,16.81,0,0,0,.93-6.53V47.23A31.64,31.64,0,0,0,419.45,40.74Z" style="fill:none;clip-rule:evenodd"/></clipPath><clipPath id="acfedde6-68e0-43a6-b5b3-0c7b8c43b662" transform="translate(-9)"><rect x="4" y="2" width="1440" height="1759" style="fill:none"/></clipPath><clipPath id="428c3e0f-b4d2-4d06-9bb4-4bbc2ee29f1e" transform="translate(-9)"><rect x="978" y="41" width="206" height="40" style="fill:none"/></clipPath><clipPath id="c8c43e0b-4931-4155-8cc0-819603e0a9bb" transform="translate(-9)"><rect x="9" y="1" width="1440" height="1759" style="fill:none"/></clipPath><clipPath id="19f7987b-7341-430f-90fc-88ac9d59d040" transform="translate(-9)"><circle cx="1176.24" cy="148.24" r="7.24" style="fill:none"/></clipPath><clipPath id="55e40ba5-db77-4d14-bba8-c59ce6dfb31e" transform="translate(-9)"><rect x="758" y="175" width="247" height="5" style="fill:none"/></clipPath></defs><title>Asset 4рор</title><g id="f8f53c35-67ed-447a-ac42-33418c201406" data-name="Layer 2"><g id="2564da33-0d2d-47e2-869e-d81ca2631736" data-name="Задний фон"><rect id="8f695dea-8f0d-4cc7-a605-9848cf6ee094" data-name="EDEEF0" width="1440" height="2000" style="fill:#eeeef0"/></g><g id="ba7e4e2d-e369-4778-bb37-cbf1283e1cbc" data-name="Верхнее меню"><rect id="d80bdabf-5029-465d-8fcf-be1cdcafa915" data-name="Синяя линия (005FCE)" width="1440" height="120" style="fill:#3f68b1"/><g id="d569ab67-d09a-4687-a7c8-f9fb228ae601" data-name="Стандартно"><g id="09496e43-f0df-4485-982b-f6f697e1e68b" data-name="ЛДПР"><g style="clip-path:url(#83244633-9365-4049-9b02-3e958403e496)"><g style="clip-path:url(#443ab69b-ae30-42b3-98f0-f168d4bdbfec)"><rect x="266.11" y="29.11" width="46.23" height="56.83" style="fill:#fff"/></g></g><g style="clip-path:url(#06312ca4-aaed-4e7d-b9bc-3d99327c8ce6)"><g style="clip-path:url(#443ab69b-ae30-42b3-98f0-f168d4bdbfec)"><rect x="305.58" y="29.11" width="46.83" height="64.87" style="fill:#fff"/></g></g><g style="clip-path:url(#86a2d7f6-6fca-4cb7-8432-054072355309)"><g style="clip-path:url(#443ab69b-ae30-42b3-98f0-f168d4bdbfec)"><rect x="346.23" y="29.11" width="38.3" height="56.81" style="fill:#fff"/></g></g><g style="clip-path:url(#5adc3327-170e-4fc0-8fd4-e8ae0c313fb7)"><g style="clip-path:url(#443ab69b-ae30-42b3-98f0-f168d4bdbfec)"><rect x="379.44" y="29.14" width="36.49" height="56.78" style="fill:#fff"/></g></g></g><g id="467908aa-1022-48c2-9ca4-30e8dd7b9487" data-name="Кнопка вступления"><g style="clip-path:url(#acfedde6-68e0-43a6-b5b3-0c7b8c43b662)"><path d="M1001.43,57.33a3.85,3.85,0,0,1-.12.94,2.57,2.57,0,0,1-.39.85,2.72,2.72,0,0,1-.7.68,3.06,3.06,0,0,1-1,.44v.11a4.23,4.23,0,0,1,1,.31,2.63,2.63,0,0,1,.85.59,2.73,2.73,0,0,1,.57.92,3.57,3.57,0,0,1,.21,1.28,3.29,3.29,0,0,1-.41,1.68,3.42,3.42,0,0,1-1.11,1.16,5.09,5.09,0,0,1-1.58.67,7.62,7.62,0,0,1-1.82.22h-.78l-1,0L994,67.07a8,8,0,0,1-1-.16V54.49l.78-.11.95-.09,1-.05,1.05,0a10.78,10.78,0,0,1,1.72.14,4.91,4.91,0,0,1,1.49.48,2.74,2.74,0,0,1,1.05,1A2.8,2.8,0,0,1,1001.43,57.33Zm-5.31,2.36.59,0,.55-.05a3.27,3.27,0,0,0,1.18-.64,1.41,1.41,0,0,0,.49-1.12,1.48,1.48,0,0,0-.18-.77,1.36,1.36,0,0,0-.48-.48,2,2,0,0,0-.67-.25,4.27,4.27,0,0,0-.79-.07l-.86,0a5.56,5.56,0,0,0-.61.05v3.33Zm.81,5.42a3.54,3.54,0,0,0,.87-.11,2.3,2.3,0,0,0,.75-.33,1.74,1.74,0,0,0,.52-.56,1.56,1.56,0,0,0,.2-.8,1.61,1.61,0,0,0-.23-.93,1.59,1.59,0,0,0-.61-.53,2.54,2.54,0,0,0-.85-.24,8.29,8.29,0,0,0-.94-.05h-1.31V65a1.11,1.11,0,0,0,.29.05l.42,0,.47,0Zm15.42,1.37a3.78,3.78,0,0,1-1.47.59,9.28,9.28,0,0,1-1.83.18,6.55,6.55,0,0,1-2.15-.35,4.6,4.6,0,0,1-1.79-1.13,5.57,5.57,0,0,1-1.23-2,8.84,8.84,0,0,1-.46-3,8.22,8.22,0,0,1,.51-3.1,5.63,5.63,0,0,1,1.33-2,4.92,4.92,0,0,1,1.83-1.1,6.4,6.4,0,0,1,2-.33,9.85,9.85,0,0,1,1.83.14,6.7,6.7,0,0,1,1.23.34l-.49,2.09a3.58,3.58,0,0,0-1-.29,9,9,0,0,0-1.38-.09,3,3,0,0,0-2.4,1.06,5,5,0,0,0-.91,3.3,6.83,6.83,0,0,0,.22,1.78,3.83,3.83,0,0,0,.66,1.37,3,3,0,0,0,1.1.88,3.47,3.47,0,0,0,1.52.32,5,5,0,0,0,1.37-.16,4,4,0,0,0,1-.41Zm9.91-9.89h-3.67V67h-2.47V56.6h-3.69V54.4h9.83Zm5,3.37.36,1.64h.11l.29-1.69,1.89-5.51h2.54l-3.35,8.71q-.4,1-.77,1.78a5.93,5.93,0,0,1-.79,1.25,2.8,2.8,0,0,1-.95.74,2.88,2.88,0,0,1-1.22.24,4.64,4.64,0,0,1-1-.08,2.59,2.59,0,0,1-.8-.35l.63-2a1.74,1.74,0,0,0,.56.2,3.79,3.79,0,0,0,.54,0q.85,0,1.19-1.33l-4.72-9.2h2.9Zm13.11-3.37H1036V67h-2.47V54.4h9.34V67h-2.47Zm12.2,3.42.14-1.64h-.09l-.85,1.69-4.7,6.93h-1.85V54.4h2.47v6.86l-.18,1.69h.11l.88-1.75,4.7-6.8H1055V67h-2.47Zm13.82-3.42h-3.67V67h-2.47V56.6h-3.69V54.4h9.83Zm1.5-2.2h2.47v4.52l.3,0,.45,0,.49,0,.47,0a8,8,0,0,1,1.71.18,3.91,3.91,0,0,1,1.47.64,3.22,3.22,0,0,1,1,1.24,4.58,4.58,0,0,1,.38,2,4,4,0,0,1-1.34,3.26,5.93,5.93,0,0,1-3.84,1.1h-.68l-.93,0-1-.09a6.87,6.87,0,0,1-.95-.16ZM1071.57,65a4.43,4.43,0,0,0,1-.1,2.15,2.15,0,0,0,.79-.34,1.63,1.63,0,0,0,.53-.64,2.25,2.25,0,0,0,.19-1,2.11,2.11,0,0,0-.21-1,1.6,1.6,0,0,0-.54-.6,2,2,0,0,0-.78-.29,5.94,5.94,0,0,0-.94-.07l-.31,0-.36,0-.33,0-.22,0v3.76a3,3,0,0,0,.53.08Z" transform="translate(-9)" style="fill:#fff"/><text transform="translate(1067.71 67)" style="font-size:18px;fill:#fff;font-family:PTSans-Bold, PT Sans;font-weight:700"> </text><path d="M1091,57.33a3.85,3.85,0,0,1-.12.94,2.57,2.57,0,0,1-.39.85,2.72,2.72,0,0,1-.7.68,3.06,3.06,0,0,1-1,.44v.11a4.23,4.23,0,0,1,1,.31,2.64,2.64,0,0,1,.85.59,2.73,2.73,0,0,1,.57.92,3.57,3.57,0,0,1,.21,1.28,3.29,3.29,0,0,1-.41,1.68,3.42,3.42,0,0,1-1.11,1.16,5.09,5.09,0,0,1-1.57.67,7.62,7.62,0,0,1-1.82.22h-.78l-1,0-1.12-.08a8,8,0,0,1-1-.16V54.49l.78-.11.94-.09,1-.05,1.05,0a10.78,10.78,0,0,1,1.72.14,4.91,4.91,0,0,1,1.49.48,2.74,2.74,0,0,1,1.05,1A2.8,2.8,0,0,1,1091,57.33Zm-5.31,2.36.58,0,.55-.05a3.27,3.27,0,0,0,1.18-.64,1.41,1.41,0,0,0,.49-1.12,1.48,1.48,0,0,0-.18-.77,1.36,1.36,0,0,0-.48-.48,2,2,0,0,0-.68-.25,4.27,4.27,0,0,0-.79-.07l-.86,0a5.56,5.56,0,0,0-.61.05v3.33Zm.81,5.42a3.54,3.54,0,0,0,.87-.11,2.3,2.3,0,0,0,.75-.33,1.74,1.74,0,0,0,.52-.56,1.56,1.56,0,0,0,.2-.8,1.61,1.61,0,0,0-.23-.93,1.59,1.59,0,0,0-.61-.53,2.54,2.54,0,0,0-.85-.24,8.29,8.29,0,0,0-.94-.05h-1.31V65a1.11,1.11,0,0,0,.29.05l.42,0,.47,0Z" transform="translate(-9)" style="fill:#fff"/><text transform="translate(1083.35 67)" style="font-size:18px;fill:#fff;font-family:PTSans-Bold, PT Sans;font-weight:700"> </text><path d="M1105.09,56.6h-4.41V67h-2.47V54.4h9.34V67h-2.47Zm11.06,7.61h-3.87l-1,2.79h-2.47l4.54-12.69h1.82L1119.75,67h-2.59Zm-3.24-2h2.7l-.94-2.81-.38-2h-.09l-.38,2Zm8.14-7.7q.76-.14,1.67-.22t1.81-.08a11.78,11.78,0,0,1,1.88.15,4.69,4.69,0,0,1,1.7.61,3.55,3.55,0,0,1,1.23,1.28,4.21,4.21,0,0,1,.48,2.13,4.42,4.42,0,0,1-.41,2,3.83,3.83,0,0,1-1.1,1.34,4.42,4.42,0,0,1-1.56.76,7,7,0,0,1-1.81.23h-.7l-.42,0-.3,0V67h-2.47Zm3.67,1.82-.68,0-.52.06v4.09l.22,0,.31,0h.54a5.17,5.17,0,0,0,1-.09,2.38,2.38,0,0,0,.85-.33,1.74,1.74,0,0,0,.6-.67,2.46,2.46,0,0,0,.23-1.13,2,2,0,0,0-.22-1,1.77,1.77,0,0,0-.57-.62,2.22,2.22,0,0,0-.8-.32A4.68,4.68,0,0,0,1124.73,56.34Zm15.65.25h-3.67V67h-2.47V56.6h-3.69V54.4h9.83Zm8.85,3.42.14-1.64h-.09l-.85,1.69-4.7,6.93h-1.85V54.4h2.47v6.86l-.18,1.69h.11l.88-1.75,4.7-6.8h1.84V67h-2.47Zm7.33-.49h1.67a6.64,6.64,0,0,1,1.51-4,4.6,4.6,0,0,1,3.58-1.4,5.36,5.36,0,0,1,2.34.47,4.14,4.14,0,0,1,1.59,1.33,5.94,5.94,0,0,1,.92,2.07,11.23,11.23,0,0,1,.3,2.68,7.87,7.87,0,0,1-1.3,4.85,4.54,4.54,0,0,1-3.85,1.7,5.21,5.21,0,0,1-2.1-.4,4.29,4.29,0,0,1-1.54-1.12,5.26,5.26,0,0,1-1-1.75,9.25,9.25,0,0,1-.47-2.27h-1.67V67h-2.47V54.4h2.47Zm4.19,1.17a10.59,10.59,0,0,0,.14,1.76,4.71,4.71,0,0,0,.43,1.38,2.32,2.32,0,0,0,.79.9,2.17,2.17,0,0,0,1.21.32,2.1,2.1,0,0,0,1.94-1,6.71,6.71,0,0,0,.62-3.33,11.74,11.74,0,0,0-.12-1.71,4.78,4.78,0,0,0-.41-1.39,2.3,2.3,0,0,0-.78-.93,2.2,2.2,0,0,0-1.25-.33,2.11,2.11,0,0,0-1.93,1.05A6.57,6.57,0,0,0,1160.75,60.7Z" transform="translate(-9)" style="fill:#fff"/></g><g style="clip-path:url(#428c3e0f-b4d2-4d06-9bb4-4bbc2ee29f1e)"><g style="clip-path:url(#acfedde6-68e0-43a6-b5b3-0c7b8c43b662)"><rect x="969" y="41" width="206" height="40" style="fill:none;stroke:#fff;stroke-miterlimit:10;stroke-width:6px"/></g></g></g><text transform="translate(616 70.8)" style="font-size:24px;fill:#fff;font-family:PTSans-Bold, PT Sans;font-weight:700">В<tspan x="14.18" y="0" style="letter-spacing:-0.017008463541666668em">О</tspan><tspan x="29.86" y="0">ЛО</tspan><tspan x="60.89" y="0" style="letter-spacing:-0.02099609375em">Г</tspan><tspan x="71.38" y="0" style="letter-spacing:-0.019002278645833332em">О</tspan><tspan x="87" y="0" style="letter-spacing:-0.02099609375em">Д</tspan><tspan x="103.08" y="0">С</tspan><tspan x="116.5" y="0" style="letter-spacing:-0.025960286458333332em">К</tspan><tspan x="130.75" y="0">ОЕ </tspan><tspan x="165.43" y="0" style="letter-spacing:-0.010986328125em">Р</tspan><tspan x="178.89" y="0" style="letter-spacing:-0.012980143229166666em">О</tspan></text></g></g><g id="484d0bad-be89-487f-b0c5-7c2a083cfc60" data-name="Нижнее меню"><rect id="6090da1f-32ca-49b9-8af9-a2de5353f2ee" data-name="Голубая линия (4990E2)" y="120" width="1440" height="60" style="fill:#538dcb"/><g id="9899e870-ae67-47c9-8240-8d8a333b9405" data-name="Нижнее меню"><g id="3a1fcba1-aaf5-4448-860e-6b03fc8648a9" data-name="Разделы меню"><g style="clip-path:url(#c8c43e0b-4931-4155-8cc0-819603e0a9bb)"><path d="M297.41,145.6h-4.86V156h-2.47V143.4h7.33Zm7.1,0h-2.68q-.07,1.71-.16,3.11t-.24,2.53a13.81,13.81,0,0,1-.4,2,5.91,5.91,0,0,1-.65,1.49,2.83,2.83,0,0,1-.57.68,3,3,0,0,1-.66.43,2.8,2.8,0,0,1-.67.22,3.36,3.36,0,0,1-.62.06,3.22,3.22,0,0,1-.69-.06,2.71,2.71,0,0,1-.55-.19l.27-2.12.22.05.22,0a1.22,1.22,0,0,0,.57-.14,1.2,1.2,0,0,0,.48-.49,3.79,3.79,0,0,0,.47-1.16,16.4,16.4,0,0,0,.35-2q.15-1.19.24-2.83t.13-3.84H307V156h-2.47Zm11.06,7.61H311.7l-1,2.79h-2.47l4.54-12.69h1.82L319.17,156h-2.59Zm-3.24-2H315l-.94-2.81-.38-2h-.09l-.38,2Zm16.62-4.9a3.85,3.85,0,0,1-.12.94,2.57,2.57,0,0,1-.39.85,2.72,2.72,0,0,1-.7.68,3.06,3.06,0,0,1-1,.44v.11a4.23,4.23,0,0,1,1,.31,2.63,2.63,0,0,1,.85.59,2.73,2.73,0,0,1,.57.92,3.57,3.57,0,0,1,.21,1.28,3.29,3.29,0,0,1-.41,1.68,3.42,3.42,0,0,1-1.11,1.16,5.09,5.09,0,0,1-1.58.67,7.62,7.62,0,0,1-1.82.22h-.78l-1,0-1.12-.08a8,8,0,0,1-1-.16V143.49l.78-.11.95-.09,1-.05,1.05,0a10.78,10.78,0,0,1,1.72.13,4.91,4.91,0,0,1,1.49.48,2.74,2.74,0,0,1,1.05,1A2.8,2.8,0,0,1,329,146.33Zm-5.31,2.36.58,0,.55-.05A3.27,3.27,0,0,0,326,148a1.41,1.41,0,0,0,.49-1.12,1.48,1.48,0,0,0-.18-.77,1.36,1.36,0,0,0-.48-.48,2,2,0,0,0-.67-.25,4.27,4.27,0,0,0-.79-.07l-.86,0a5.56,5.56,0,0,0-.61.05v3.33Zm.81,5.42a3.54,3.54,0,0,0,.87-.11,2.3,2.3,0,0,0,.75-.33,1.74,1.74,0,0,0,.52-.56,1.56,1.56,0,0,0,.2-.8,1.61,1.61,0,0,0-.23-.93,1.59,1.59,0,0,0-.61-.53,2.54,2.54,0,0,0-.85-.24,8.29,8.29,0,0,0-.94-.05h-1.31V154a1.11,1.11,0,0,0,.29.05l.42,0,.47,0Zm14-3.38H333.8V156h-2.47V143.4h2.47v5.13h4.61V143.4h2.47V156h-2.47Zm11.08,2.48h-3.87l-1,2.79H342.2l4.54-12.69h1.82L353.09,156H350.5Zm-3.24-2h2.7l-.94-2.81-.38-2h-.09l-.38,2ZM362.66,156h-2.47v-5l-1.3.34L356.27,156H353.4l2.59-4.19,1.08-.77a4,4,0,0,1-1.08-.44,3.24,3.24,0,0,1-.88-.76,3.55,3.55,0,0,1-.59-1.11,4.51,4.51,0,0,1-.22-1.45,4.16,4.16,0,0,1,.4-1.91,3.31,3.31,0,0,1,1.1-1.25,4.69,4.69,0,0,1,1.67-.68,10.12,10.12,0,0,1,2.11-.21l.7,0,.82.05.83.09a5.42,5.42,0,0,1,.73.14Zm-3.38-10.58a4.5,4.5,0,0,0-.92.09,2.13,2.13,0,0,0-.76.31,1.51,1.51,0,0,0-.51.59,2.17,2.17,0,0,0-.19,1,2.23,2.23,0,0,0,.18.95,1.63,1.63,0,0,0,.5.63,2.09,2.09,0,0,0,.76.35,3.85,3.85,0,0,0,.94.11h.92v-3.91l-.4-.06A4.07,4.07,0,0,0,359.27,145.42Z" transform="translate(-9)" style="fill:#fff"/><text transform="translate(354.98 156)" style="font-size:18px;fill:#fff;font-family:PTSans-Bold, PT Sans;font-weight:700;letter-spacing:0.012017144097222222em"><tspan xml:space="preserve">    </tspan><tspan x="19.08" y="0" style="letter-spacing:0.00002712673611111111em"> </tspan></text><path d="M389,143.53q.76-.14,1.66-.22t1.81-.08a11.78,11.78,0,0,1,1.88.15,4.69,4.69,0,0,1,1.7.61,3.55,3.55,0,0,1,1.23,1.28,4.21,4.21,0,0,1,.48,2.13,4.42,4.42,0,0,1-.41,2,3.83,3.83,0,0,1-1.1,1.34,4.42,4.42,0,0,1-1.56.76,7,7,0,0,1-1.81.23h-.7l-.42,0-.3,0V156H389Zm3.67,1.82-.68,0-.52.06v4.09l.22,0,.31,0h.54a5.17,5.17,0,0,0,1-.09,2.38,2.38,0,0,0,.86-.33,1.74,1.74,0,0,0,.6-.68,2.46,2.46,0,0,0,.23-1.13,2,2,0,0,0-.22-1,1.77,1.77,0,0,0-.57-.62,2.22,2.22,0,0,0-.8-.32A4.68,4.68,0,0,0,392.63,145.34Zm6.85-1.94h7.47v2.2h-5v2.93h4.55v2.2h-4.55v3.08H407V156h-7.56Zm16.95,2.2h-4.86V156H409.1V143.4h7.33Zm8.49,3.42.14-1.64H425l-.85,1.69-4.7,6.93h-1.85V143.4H420v6.86l-.18,1.69H420l.88-1.75,4.7-6.8h1.84V156h-2.47Zm4.47.68a7.5,7.5,0,0,1,1.39-4.85,4.81,4.81,0,0,1,4-1.7,5.55,5.55,0,0,1,2.36.47,4.45,4.45,0,0,1,1.67,1.33,5.83,5.83,0,0,1,1,2.07,10.33,10.33,0,0,1,.32,2.68,7.47,7.47,0,0,1-1.39,4.85,4.82,4.82,0,0,1-4,1.7,5.6,5.6,0,0,1-2.38-.47,4.36,4.36,0,0,1-1.66-1.33,5.91,5.91,0,0,1-1-2.07A10.33,10.33,0,0,1,429.38,149.7Zm2.59,0a8.86,8.86,0,0,0,.16,1.75,4.53,4.53,0,0,0,.49,1.38,2.51,2.51,0,0,0,.86.9,2.31,2.31,0,0,0,1.24.32,2.34,2.34,0,0,0,2-1,5.93,5.93,0,0,0,.72-3.33,9,9,0,0,0-.15-1.71,4.77,4.77,0,0,0-.48-1.39,2.49,2.49,0,0,0-.85-.93,2.53,2.53,0,0,0-3.31.72A6,6,0,0,0,432,149.7Zm17.16,1h-4.61V156h-2.47V143.4h2.47v5.13h4.61V143.4h2.47V156h-2.47Zm11.08,2.48h-3.87l-1,2.79h-2.47l4.54-12.69h1.82L463.82,156h-2.59Zm-3.24-2h2.7l-.94-2.81-.38-2h-.09l-.38,2Zm14.26-5.63h-2.68q-.07,1.71-.16,3.11t-.24,2.53a13.81,13.81,0,0,1-.41,2,5.91,5.91,0,0,1-.65,1.49,2.83,2.83,0,0,1-.57.68,3,3,0,0,1-.66.43,2.8,2.8,0,0,1-.68.22,3.36,3.36,0,0,1-.62.06,3.22,3.22,0,0,1-.69-.06,2.71,2.71,0,0,1-.55-.19l.27-2.12.22.05.22,0a1.22,1.22,0,0,0,.57-.14,1.2,1.2,0,0,0,.48-.49,3.79,3.79,0,0,0,.47-1.16,16.41,16.41,0,0,0,.35-2q.15-1.19.24-2.83t.13-3.84h7.43V156h-2.47Zm4.85-2.2h2.47v4.52l.3,0,.45,0,.49,0,.47,0A8,8,0,0,1,482,148a3.91,3.91,0,0,1,1.47.64,3.21,3.21,0,0,1,1,1.24,4.58,4.58,0,0,1,.38,2,4,4,0,0,1-1.34,3.26,5.93,5.93,0,0,1-3.84,1.1H479l-.93,0-1-.09a6.87,6.87,0,0,1-.95-.16ZM479.78,154a4.43,4.43,0,0,0,1-.1,2.15,2.15,0,0,0,.79-.34,1.63,1.63,0,0,0,.53-.64,2.24,2.24,0,0,0,.19-1,2.11,2.11,0,0,0-.21-1,1.6,1.6,0,0,0-.54-.6,2,2,0,0,0-.78-.29,5.94,5.94,0,0,0-.94-.07l-.31,0-.36,0-.33,0-.23,0v3.76a3,3,0,0,0,.53.08Zm13.85-3.26H489V156h-2.47V143.4H489v5.13h4.61V143.4h2.47V156h-2.47Zm4.47-1a7.5,7.5,0,0,1,1.39-4.85,4.82,4.82,0,0,1,4-1.7,5.55,5.55,0,0,1,2.36.47,4.45,4.45,0,0,1,1.67,1.33,5.83,5.83,0,0,1,1,2.07,10.33,10.33,0,0,1,.32,2.68,7.47,7.47,0,0,1-1.4,4.85,4.82,4.82,0,0,1-4,1.7,5.6,5.6,0,0,1-2.38-.47,4.36,4.36,0,0,1-1.67-1.33,5.91,5.91,0,0,1-1-2.07A10.33,10.33,0,0,1,498.11,149.7Zm2.59,0a8.86,8.86,0,0,0,.16,1.75,4.53,4.53,0,0,0,.49,1.38,2.51,2.51,0,0,0,.86.9,2.31,2.31,0,0,0,1.24.32,2.34,2.34,0,0,0,2-1,5.93,5.93,0,0,0,.72-3.33,9,9,0,0,0-.15-1.71,4.77,4.77,0,0,0-.48-1.39,2.49,2.49,0,0,0-.85-.93,2.53,2.53,0,0,0-3.31.72A6,6,0,0,0,500.7,149.7Zm10.09-6.3h7.47v2.2h-5v2.93h4.55v2.2h-4.55v3.08h5.09V156h-7.56Z" transform="translate(-9)" style="fill:#fff"/><text transform="translate(510.33 156)" style="font-size:18px;fill:#fff;font-family:PTSans-Bold, PT Sans;font-weight:700"> </text><path d="M524.56,149.7a7.5,7.5,0,0,1,1.39-4.85,4.82,4.82,0,0,1,4-1.7,5.55,5.55,0,0,1,2.36.47,4.45,4.45,0,0,1,1.67,1.33,5.83,5.83,0,0,1,1,2.07,10.33,10.33,0,0,1,.32,2.68,7.47,7.47,0,0,1-1.4,4.85,4.82,4.82,0,0,1-4,1.7,5.6,5.6,0,0,1-2.38-.47,4.36,4.36,0,0,1-1.66-1.33,5.91,5.91,0,0,1-1-2.07A10.33,10.33,0,0,1,524.56,149.7Zm2.59,0a8.86,8.86,0,0,0,.16,1.75,4.53,4.53,0,0,0,.49,1.38,2.51,2.51,0,0,0,.85.9,2.31,2.31,0,0,0,1.24.32,2.34,2.34,0,0,0,2-1,5.93,5.93,0,0,0,.72-3.33,9,9,0,0,0-.15-1.71,4.77,4.77,0,0,0-.48-1.39,2.48,2.48,0,0,0-.85-.93,2.53,2.53,0,0,0-3.31.72A6,6,0,0,0,527.15,149.7Zm18.33-4.1h-3.67V156h-2.47V145.6h-3.69v-2.2h9.83Zm12,12.65h-1.75L555.5,156h-8.1l-.27,2.25h-1.75V153.8h1.33a7.42,7.42,0,0,0,.41-.88,12.41,12.41,0,0,0,.58-1.94,26.92,26.92,0,0,0,.49-3.13,40.62,40.62,0,0,0,.18-4.45h7.54v10.4h1.6Zm-4.07-4.45V145.6h-2.79a33.67,33.67,0,0,1-.51,5.25,14.86,14.86,0,0,1-.82,3Zm5.68-10.4h7.47v2.2h-5v2.93h4.55v2.2h-4.55v3.08h5.09V156h-7.56Zm16.21,2.2h-2.68q-.07,1.71-.16,3.11t-.24,2.53a13.8,13.8,0,0,1-.41,2,5.91,5.91,0,0,1-.65,1.49,2.83,2.83,0,0,1-.57.68,3,3,0,0,1-.66.43,2.8,2.8,0,0,1-.68.22,3.36,3.36,0,0,1-.62.06,3.22,3.22,0,0,1-.69-.06,2.71,2.71,0,0,1-.55-.19l.27-2.12.22.05.22,0a1.22,1.22,0,0,0,.57-.14,1.2,1.2,0,0,0,.48-.49,3.8,3.8,0,0,0,.47-1.16,16.41,16.41,0,0,0,.35-2q.15-1.19.24-2.83t.13-3.84h7.43V156h-2.47Zm4.85-2.2h7.47v2.2h-5v2.93h4.55v2.2h-4.55v3.08h5.09V156h-7.56Zm16.7,7.33h-4.61V156h-2.47V143.4h2.47v5.13h4.61V143.4h2.47V156h-2.47ZM609.09,149l.14-1.64h-.09l-.85,1.69L603.6,156h-1.85V143.4h2.47v6.86L604,152h.11l.88-1.75,4.7-6.8h1.84V156h-2.47ZM614,143.4h7.47v2.2h-5v2.93H621v2.2h-4.55v3.08h5.09V156H614Z" transform="translate(-9)" style="fill:#fff"/><text transform="translate(613.5 156)" style="font-size:18px;fill:#fff;font-family:PTSans-Bold, PT Sans;font-weight:700;letter-spacing:0.012017144097222222em"><tspan xml:space="preserve">    </tspan><tspan x="19.08" y="0" style="letter-spacing:0.00002712673611111111em"> </tspan></text><path d="M658.3,158.25h-1.75l-.27-2.25h-8.1l-.27,2.25h-1.75V153.8h1.33a7.43,7.43,0,0,0,.41-.88,12.42,12.42,0,0,0,.58-1.94,26.92,26.92,0,0,0,.49-3.13,40.64,40.64,0,0,0,.18-4.45h7.54v10.4h1.6Zm-4.07-4.45V145.6h-2.79a33.67,33.67,0,0,1-.51,5.25,14.86,14.86,0,0,1-.82,3Zm5.68-10.4h7.47v2.2h-5v2.93h4.55v2.2h-4.55v3.08h5.09V156h-7.56Zm16.5,2.2H672V156h-2.47V143.4h9.34V156h-2.47Zm9.06,3.37.36,1.64h.11l.29-1.69,1.89-5.51h2.54l-3.35,8.71q-.4,1-.77,1.78a5.92,5.92,0,0,1-.79,1.25,2.8,2.8,0,0,1-.94.74,2.88,2.88,0,0,1-1.22.24,4.64,4.64,0,0,1-1-.08,2.59,2.59,0,0,1-.8-.35l.63-2a1.74,1.74,0,0,0,.56.2,3.79,3.79,0,0,0,.54,0q.85,0,1.19-1.33L680,143.4h2.9Zm14.59-3.37h-3.67V156h-2.47V145.6h-3.69v-2.2h9.83Zm6.31,7.61H702.5l-1,2.79h-2.47l4.54-12.69h1.82L710,156h-2.59Zm-3.24-2h2.7l-.94-2.81-.38-2h-.09l-.38,2Zm15.69-5.63h-3.67V156h-2.47V145.6H709v-2.2h9.83Zm1.5-2.2h2.47v4.52l.63-.09a6.82,6.82,0,0,1,.85-.05A8,8,0,0,1,726,148a3.66,3.66,0,0,1,1.43.64,3.17,3.17,0,0,1,1,1.24,4.72,4.72,0,0,1,.36,2,4.08,4.08,0,0,1-1.28,3.28,5.72,5.72,0,0,1-3.8,1.09H723l-.85,0-.94-.09a6.34,6.34,0,0,1-.9-.16ZM723.84,154a2.71,2.71,0,0,0,1.67-.48,1.86,1.86,0,0,0,.64-1.59,2.27,2.27,0,0,0-.18-1,1.5,1.5,0,0,0-.49-.59,1.85,1.85,0,0,0-.72-.3,4.54,4.54,0,0,0-1.49,0,2.46,2.46,0,0,0-.49.1v3.76a2.9,2.9,0,0,0,.48.08ZM730,143.4h2.47V156H730Z" transform="translate(-9)" style="fill:#fff"/><text transform="translate(724.83 156)" style="font-size:18px;fill:#fff;font-family:PTSans-Bold, PT Sans;font-weight:700;letter-spacing:0.012017144097222222em"><tspan xml:space="preserve">    </tspan><tspan x="19.08" y="0" style="letter-spacing:0.00002712673611111111em"> </tspan></text><path d="M768.58,149.47l.27-2.5h-.11l-.77,2-2.68,4.7h-.79L761.66,149l-.79-2h-.09l.36,2.48V156H758.8V143.4h2.25l3.37,5.76.59,1.44h.07l.54-1.48,3.19-5.72H771V156h-2.47Zm4.46.23a7.5,7.5,0,0,1,1.39-4.85,4.82,4.82,0,0,1,4-1.7,5.55,5.55,0,0,1,2.36.47,4.45,4.45,0,0,1,1.67,1.33,5.83,5.83,0,0,1,1,2.07,10.34,10.34,0,0,1,.32,2.68,7.47,7.47,0,0,1-1.4,4.85,4.82,4.82,0,0,1-4,1.7,5.6,5.6,0,0,1-2.38-.47,4.36,4.36,0,0,1-1.66-1.33,5.91,5.91,0,0,1-1-2.07A10.33,10.33,0,0,1,773,149.7Zm2.59,0a8.86,8.86,0,0,0,.16,1.75,4.53,4.53,0,0,0,.49,1.38,2.52,2.52,0,0,0,.85.9,2.31,2.31,0,0,0,1.24.32,2.34,2.34,0,0,0,2-1,5.93,5.93,0,0,0,.72-3.33A9,9,0,0,0,781,148a4.77,4.77,0,0,0-.48-1.39,2.48,2.48,0,0,0-.85-.93,2.53,2.53,0,0,0-3.31.72A6,6,0,0,0,775.62,149.7ZM792,145.6h-2.68q-.07,1.71-.16,3.11t-.24,2.53a13.8,13.8,0,0,1-.41,2,5.91,5.91,0,0,1-.65,1.49,2.83,2.83,0,0,1-.57.68,3,3,0,0,1-.66.43,2.8,2.8,0,0,1-.68.22,3.36,3.36,0,0,1-.62.06,3.22,3.22,0,0,1-.69-.06,2.71,2.71,0,0,1-.55-.19l.27-2.12.22.05.22,0a1.22,1.22,0,0,0,.57-.14,1.2,1.2,0,0,0,.48-.49,3.8,3.8,0,0,0,.47-1.16,16.41,16.41,0,0,0,.35-2q.15-1.19.24-2.83t.13-3.84h7.43V156H792Zm4.45,4.1a7.5,7.5,0,0,1,1.39-4.85,4.82,4.82,0,0,1,4-1.7,5.55,5.55,0,0,1,2.36.47,4.45,4.45,0,0,1,1.67,1.33,5.83,5.83,0,0,1,1,2.07,10.33,10.33,0,0,1,.32,2.68,7.47,7.47,0,0,1-1.39,4.85,4.82,4.82,0,0,1-4,1.7,5.6,5.6,0,0,1-2.38-.47,4.36,4.36,0,0,1-1.66-1.33,5.91,5.91,0,0,1-1-2.07A10.33,10.33,0,0,1,796.45,149.7Zm2.59,0a8.86,8.86,0,0,0,.16,1.75,4.53,4.53,0,0,0,.49,1.38,2.52,2.52,0,0,0,.85.9,2.31,2.31,0,0,0,1.24.32,2.34,2.34,0,0,0,2-1,5.93,5.93,0,0,0,.72-3.33,9,9,0,0,0-.15-1.71,4.77,4.77,0,0,0-.48-1.39,2.49,2.49,0,0,0-.85-.93,2.53,2.53,0,0,0-3.31.72A6,6,0,0,0,799,149.7Zm20.8,8.55h-1.75l-.27-2.25h-8.1l-.27,2.25h-1.75V153.8H809a7.41,7.41,0,0,0,.41-.88A12.41,12.41,0,0,0,810,151a26.92,26.92,0,0,0,.49-3.13,40.62,40.62,0,0,0,.18-4.45h7.54v10.4h1.6Zm-4.07-4.45V145.6H813a33.67,33.67,0,0,1-.51,5.25,14.86,14.86,0,0,1-.82,3Zm5.68-10.4h7.47v2.2h-5v2.93h4.55v2.2h-4.55v3.08H829V156h-7.56Zm14.84,0h2.34V149l.63-.25,2.61-5.35h2.77l-2.93,5.53-.85.61,1,.76L845.2,156h-3l-2.9-5.47h-.7V156h-2.34v-5.69l-.65.25-2.9,5.44h-2.88l3.29-5.53,1-.7-.94-.67-3.08-5.71H833l2.61,5.38h.7Zm17.18,7.33h-4.61V156H846.4V143.4h2.47v5.13h4.61V143.4h2.47V156h-2.47Zm11.08,2.48h-3.87l-1,2.79h-2.47l4.54-12.69h1.82L868.15,156h-2.59Zm-3.24-2H864l-.94-2.81-.38-2h-.09l-.38,2ZM877.72,156h-2.47v-5l-1.3.34L871.33,156h-2.86l2.59-4.19,1.08-.77a4,4,0,0,1-1.08-.44,3.24,3.24,0,0,1-.88-.76,3.55,3.55,0,0,1-.59-1.11,4.51,4.51,0,0,1-.22-1.45,4.16,4.16,0,0,1,.4-1.91,3.31,3.31,0,0,1,1.1-1.25,4.69,4.69,0,0,1,1.67-.68,10.12,10.12,0,0,1,2.11-.21l.7,0,.82.05.83.09a5.42,5.42,0,0,1,.73.14Zm-3.38-10.58a4.5,4.5,0,0,0-.92.09,2.14,2.14,0,0,0-.76.31,1.51,1.51,0,0,0-.51.59,2.17,2.17,0,0,0-.19,1,2.23,2.23,0,0,0,.18.95,1.63,1.63,0,0,0,.5.63,2.09,2.09,0,0,0,.76.35,3.85,3.85,0,0,0,.94.11h.92v-3.91l-.4-.06A4.07,4.07,0,0,0,874.33,145.42Z" transform="translate(-9)" style="fill:#fff"/><text transform="translate(870.04 156)" style="font-size:18px;fill:#fff;font-family:PTSans-Bold, PT Sans;font-weight:700"> </text><path d="M884.27,149.7a7.5,7.5,0,0,1,1.39-4.85,4.82,4.82,0,0,1,4-1.7,5.55,5.55,0,0,1,2.36.47,4.45,4.45,0,0,1,1.67,1.33,5.83,5.83,0,0,1,1,2.07,10.33,10.33,0,0,1,.32,2.68,7.47,7.47,0,0,1-1.39,4.85,4.82,4.82,0,0,1-4,1.7,5.6,5.6,0,0,1-2.38-.47,4.36,4.36,0,0,1-1.66-1.33,5.91,5.91,0,0,1-1-2.07A10.33,10.33,0,0,1,884.27,149.7Zm2.59,0a8.86,8.86,0,0,0,.16,1.75,4.53,4.53,0,0,0,.49,1.38,2.51,2.51,0,0,0,.86.9,2.31,2.31,0,0,0,1.24.32,2.34,2.34,0,0,0,2-1,5.93,5.93,0,0,0,.72-3.33,9,9,0,0,0-.15-1.71,4.77,4.77,0,0,0-.48-1.39,2.49,2.49,0,0,0-.85-.93,2.53,2.53,0,0,0-3.31.72A6,6,0,0,0,886.86,149.7ZM897,143.53q.76-.14,1.66-.22t1.81-.08a11.78,11.78,0,0,1,1.88.15,4.69,4.69,0,0,1,1.7.61,3.55,3.55,0,0,1,1.23,1.28,4.21,4.21,0,0,1,.48,2.13,4.42,4.42,0,0,1-.41,2,3.83,3.83,0,0,1-1.1,1.34,4.42,4.42,0,0,1-1.56.76,7,7,0,0,1-1.81.23h-.7l-.42,0-.3,0V156H897Zm3.67,1.82-.68,0-.52.06v4.09l.22,0,.31,0h.54a5.17,5.17,0,0,0,1-.09,2.38,2.38,0,0,0,.86-.33,1.74,1.74,0,0,0,.6-.68,2.46,2.46,0,0,0,.23-1.13,2,2,0,0,0-.22-1,1.77,1.77,0,0,0-.57-.62,2.22,2.22,0,0,0-.8-.32A4.68,4.68,0,0,0,900.62,145.34Zm14.18.25h-4.86V156h-2.47V143.4h7.33Zm5.84,7.61h-3.87l-1,2.79h-2.47l4.54-12.69h1.82L924.24,156h-2.59Zm-3.24-2h2.7l-.94-2.81-.38-2h-.09l-.38,2Zm15.22-.5H928V156h-2.47V143.4H928v5.13h4.61V143.4h2.47V156h-2.47ZM944.83,149l.14-1.64h-.09l-.85,1.69-4.7,6.93h-1.85V143.4H940v6.86l-.18,1.69h.11l.88-1.75,4.7-6.8h1.84V156h-2.47Zm5.95,1.4v-1.93h1.31l.48,0,.38-.06a2.58,2.58,0,0,0,1.08-.51,1.22,1.22,0,0,0,.45-1,1.24,1.24,0,0,0-.55-1.18,2.9,2.9,0,0,0-1.45-.31,5.12,5.12,0,0,0-1.51.22,5.94,5.94,0,0,0-1.06.41l-.63-2.09a3.81,3.81,0,0,1,.57-.23q.37-.13.85-.24a9.44,9.44,0,0,1,1-.19,8.88,8.88,0,0,1,1.13-.07,8.26,8.26,0,0,1,1.55.14,4,4,0,0,1,1.35.5,2.77,2.77,0,0,1,1,1,3,3,0,0,1,.36,1.54,3.2,3.2,0,0,1-.49,1.73,2.83,2.83,0,0,1-1.59,1.15v.09a2.87,2.87,0,0,1,2.48,3.08,3.5,3.5,0,0,1-.41,1.76,3.6,3.6,0,0,1-1.09,1.2,4.77,4.77,0,0,1-1.56.69,7.26,7.26,0,0,1-1.8.23,10.86,10.86,0,0,1-2.16-.2,6,6,0,0,1-1.49-.47l.63-2.14a7.19,7.19,0,0,0,3,.61,3.36,3.36,0,0,0,.8-.1,2.16,2.16,0,0,0,.73-.32,1.69,1.69,0,0,0,.52-.58,1.77,1.77,0,0,0,.2-.86,1.45,1.45,0,0,0-.63-1.28,4.4,4.4,0,0,0-2.25-.47l-.32,0h-.86Zm14.82,2.79h-3.87l-1,2.79h-2.47l4.54-12.69h1.82L969.2,156h-2.59Zm-3.24-2h2.7l-.94-2.81-.38-2h-.09l-.38,2Zm19,7h-1.75l-.27-2.25h-8.87V143.4H973v10.4h4.34V143.4h2.47v10.4h1.62Zm9-9.23.14-1.64h-.09l-.85,1.69-4.7,6.93H983V143.4h2.47v6.86L985.3,152h.11l.88-1.75,4.7-6.8h1.84V156h-2.47Zm13.13,7H1001v-5l-1.3.34L997.09,156h-2.86l2.59-4.19,1.08-.77a4,4,0,0,1-1.08-.44,3.24,3.24,0,0,1-.88-.76,3.55,3.55,0,0,1-.59-1.11,4.51,4.51,0,0,1-.22-1.45,4.16,4.16,0,0,1,.4-1.91,3.31,3.31,0,0,1,1.1-1.25,4.69,4.69,0,0,1,1.67-.68,10.12,10.12,0,0,1,2.11-.21l.7,0,.82.05.83.09a5.42,5.42,0,0,1,.73.14Zm-3.38-10.58a4.5,4.5,0,0,0-.92.09,2.14,2.14,0,0,0-.76.31,1.51,1.51,0,0,0-.51.59,2.17,2.17,0,0,0-.19,1,2.23,2.23,0,0,0,.18.95,1.63,1.63,0,0,0,.5.63,2.09,2.09,0,0,0,.76.35,3.85,3.85,0,0,0,.94.11h.92v-3.91l-.4-.06A4.07,4.07,0,0,0,1000.1,145.42Z" transform="translate(-9)" style="fill:#fff"/></g></g><g id="48254034-97a9-4599-b377-26300c209f95" data-name="Кнопка поиска"><g style="clip-path:url(#19f7987b-7341-430f-90fc-88ac9d59d040)"><g style="clip-path:url(#c8c43e0b-4931-4155-8cc0-819603e0a9bb)"><circle cx="1167.24" cy="148.24" r="7.24" style="fill:none;stroke:#fff;stroke-linecap:round;stroke-linejoin:round;stroke-width:6px"/></g></g><g style="clip-path:url(#c8c43e0b-4931-4155-8cc0-819603e0a9bb)"><line x1="1172.36" y1="153.36" x2="1178.5" y2="159.5" style="fill:none;stroke:#fff;stroke-linecap:round;stroke-linejoin:round;stroke-width:3px"/></g></g><g id="34e85a11-3aac-4b15-aa9c-aa9a33c13079" data-name="Подчеркивание под словами"><g style="clip-path:url(#55e40ba5-db77-4d14-bba8-c59ce6dfb31e)"><g style="clip-path:url(#c8c43e0b-4931-4155-8cc0-819603e0a9bb)"><rect x="744" y="170" width="257" height="15" style="fill:#fff"/></g></g></g></g></g><g id="d3871461-d8f2-443a-b379-ab83d30a2861" data-name="Нижняя полоса"><rect id="a585d61f-4e8a-497c-b028-c905f74f2068" data-name="Синяя линия (005FCE)" y="1680" width="1440" height="80" style="fill:#3f68b1"/><g id="37785764-9ea3-434c-847d-31be8040e684" data-name="Иконки соцсетей"><path id="069985fc-4b06-456b-a319-c4573823d7b0" data-name="Вконтакте" d="M318.85,1720s4.58-6.45,5-8.58c.15-.76-.18-1.18-1-1.18h-4a1.45,1.45,0,0,0-1.52,1,36,36,0,0,1-4.76,7.45c-.84.93-1.26,1.21-1.73,1.21s-.55-.31-.55-1.15v-7.36c0-1-.12-1.33-1-1.33h-6.36a.7.7,0,0,0-.79.67c0,1,1.48,1.19,1.48,3.82v5.42c0,1.09-.06,1.52-.58,1.52-1.36,0-4.61-4.7-6.42-10-.36-1.09-.76-1.39-1.79-1.39h-4a1,1,0,0,0-1,1c0,1.06,1.24,6,6.12,12.55,3.27,4.42,7.58,6.82,11.45,6.82,2.36,0,2.94-.39,2.94-1.39v-3.39c0-.85.33-1.21.82-1.21s1.51.18,3.76,2.39c2.67,2.55,2.85,3.61,4.3,3.61h4.45c.45,0,.88-.21.88-1,0-1-1.3-2.79-3.3-4.91-.82-1.09-2.15-2.27-2.58-2.82-.61-.64-.42-1,0-1.67" transform="translate(-9)" style="fill:none;stroke:#fff;stroke-miterlimit:10;stroke-width:2px"/><g id="c021c7a6-7e02-44a8-b34a-84a778b0adfc" data-name="Инстаграм"><rect x="357" y="1710" width="20" height="20" rx="5" ry="5" style="fill:none;stroke:#fff;stroke-linecap:round;stroke-linejoin:round;stroke-width:2px"/><path d="M380,1719.37a4,4,0,1,1-3.37-3.37A4,4,0,0,1,380,1719.37Z" transform="translate(-9)" style="fill:none;stroke:#fff;stroke-linecap:round;stroke-linejoin:round;stroke-width:2px"/></g><path id="eeec6b5c-58c7-4cce-b6e1-24d85a470338" data-name="Твиттер" d="M451,1710.06a11.82,11.82,0,0,1-3.43,1.7,4.84,4.84,0,0,0-5.43-1.38,5,5,0,0,0-3.14,4.7v1.11a11.57,11.57,0,0,1-9.82-5s-4.36,10,5.45,14.4a12.56,12.56,0,0,1-7.64,2.22c9.82,5.54,21.82,0,21.82-12.74a5.06,5.06,0,0,0-.09-.92A8.59,8.59,0,0,0,451,1710.06Z" transform="translate(-9)" style="fill:none;stroke:#fff;stroke-linecap:round;stroke-linejoin:round;stroke-width:2px"/><path id="aa23dfa6-261c-4cb6-b34d-84250a4d61a8" data-name="Фэйсбук" d="M504,1710h-3a5,5,0,0,0-5,5v3h-3v4h3v8h4v-8h3l1-4h-4v-3a1,1,0,0,1,1-1h3Z" transform="translate(-9)" style="fill:none;stroke:#fff;stroke-linecap:round;stroke-linejoin:round;stroke-width:2px"/></g><g id="5bb64cf4-51fc-45d9-bf37-517610e7f6db" data-name="Ссылка на сайт"><line x1="663.02" y1="1717.5" x2="693.16" y2="1717.5" style="fill:none;stroke:#fff;stroke-miterlimit:10"/><line x1="696.28" y1="1717.5" x2="776.98" y2="1717.5" style="fill:none;stroke:#fff;stroke-miterlimit:10"/><path d="M681.24,1716.81h-.8l-.21-1.81h-7v-9.8h1.16V1714h4.41v-8.76h1.16V1714h1.3Zm6.39-2.37a3.16,3.16,0,0,1-1.06.53,4.57,4.57,0,0,1-1.35.2,3.42,3.42,0,0,1-1.39-.26,2.47,2.47,0,0,1-1-.74,3.21,3.21,0,0,1-.56-1.15,5.79,5.79,0,0,1-.18-1.51,4.11,4.11,0,0,1,.8-2.73,2.83,2.83,0,0,1,2.28-.94,4.41,4.41,0,0,1,1,.1,2,2,0,0,1,1.47,1.23,3.56,3.56,0,0,1,.24,1.42,6.93,6.93,0,0,1-.08,1H683.3a4.28,4.28,0,0,0,.13,1.09,2.13,2.13,0,0,0,.39.8,1.7,1.7,0,0,0,.69.5,2.75,2.75,0,0,0,1,.18,2.84,2.84,0,0,0,1-.17,2,2,0,0,0,.71-.39Zm-2.41-5.63a1.94,1.94,0,0,0-1.32.43,2.17,2.17,0,0,0-.59,1.48h3.47a2.15,2.15,0,0,0-.41-1.49A1.51,1.51,0,0,0,685.23,1708.81Zm8.83,3.09h-3.16V1715h-1.12v-7h1.12v2.93h3.16V1708h1.12v7h-1.12Zm7.86-2.93h-2.18v6h-1.12v-6h-2.18v-1h5.49Zm1.24-1h.77l.21.84h.06a2.14,2.14,0,0,1,.83-.75,2.95,2.95,0,0,1,3.26.57,4.23,4.23,0,0,1,.69,2.7,5.1,5.1,0,0,1-.23,1.59,3.47,3.47,0,0,1-.65,1.2,2.85,2.85,0,0,1-1,.76,3.21,3.21,0,0,1-1.32.27,4.18,4.18,0,0,1-.82-.06,3.31,3.31,0,0,1-.65-.22v2.91h-1.12Zm2.83.81a1.63,1.63,0,0,0-1.13.37,2.07,2.07,0,0,0-.58,1.13v3.47a1.87,1.87,0,0,0,.57.3,2.83,2.83,0,0,0,.85.11,1.85,1.85,0,0,0,1.53-.72,3.38,3.38,0,0,0,.57-2.12,5.12,5.12,0,0,0-.1-1,2.29,2.29,0,0,0-.32-.8,1.51,1.51,0,0,0-.56-.51A1.79,1.79,0,0,0,706,1708.81Zm4.77-.29A4,4,0,0,1,712,1708a6.93,6.93,0,0,1,1.48-.15,2.92,2.92,0,0,1,1.17.2,1.63,1.63,0,0,1,.67.51,1.75,1.75,0,0,1,.31.69,3.79,3.79,0,0,1,.08.76q0,.84,0,1.64t0,1.51q0,.52,0,1a4.62,4.62,0,0,0,.15.85H715l-.29-1h-.07a2.32,2.32,0,0,1-.32.38,2,2,0,0,1-.45.34,2.87,2.87,0,0,1-.62.24,3,3,0,0,1-.8.1,2.42,2.42,0,0,1-.83-.14,1.94,1.94,0,0,1-.67-.4,1.86,1.86,0,0,1-.44-.62,2,2,0,0,1-.16-.83,1.94,1.94,0,0,1,.25-1,1.82,1.82,0,0,1,.71-.66,3.5,3.5,0,0,1,1.09-.35,8.68,8.68,0,0,1,1.41-.1h.39l.39,0q0-.42,0-.76a1.5,1.5,0,0,0-.31-1.08,1.58,1.58,0,0,0-1.12-.31,3.91,3.91,0,0,0-.51,0l-.56.1a4.58,4.58,0,0,0-.55.16,2.72,2.72,0,0,0-.46.21Zm2,5.61a2.17,2.17,0,0,0,.7-.11,2,2,0,0,0,.53-.27,1.69,1.69,0,0,0,.37-.36,1.59,1.59,0,0,0,.22-.38v-1.16l-.4,0h-.4a7.2,7.2,0,0,0-.85,0,2.69,2.69,0,0,0-.73.18,1.28,1.28,0,0,0-.5.36.89.89,0,0,0-.19.58,1,1,0,0,0,.35.8A1.29,1.29,0,0,0,712.75,1714.13Zm9-5.15h-2q0,.59-.08,1.27t-.13,1.36q-.08.68-.22,1.3a5.63,5.63,0,0,1-.36,1.1,2.31,2.31,0,0,1-.53.76,1.07,1.07,0,0,1-.75.29,3.32,3.32,0,0,1-.46,0,1.28,1.28,0,0,1-.35-.1l.17-.94a1.14,1.14,0,0,0,.36.06.68.68,0,0,0,.5-.24,2.14,2.14,0,0,0,.39-.9,12.92,12.92,0,0,0,.28-1.84q.11-1.18.15-3.07h4.17v7h-1.12Zm4.53,1.69q.34-.06.64-.08l.59,0a4.09,4.09,0,0,1,1.23.16,2.24,2.24,0,0,1,.82.44,1.62,1.62,0,0,1,.45.67,2.38,2.38,0,0,1,.14.82,2.16,2.16,0,0,1-.76,1.85,4,4,0,0,1-2.37.57q-.9,0-1.86-.08v-7h1.12Zm0,3.35a6.21,6.21,0,0,0,1,.08,2,2,0,0,0,1.3-.34,1.3,1.3,0,0,0,0-1.9,1.87,1.87,0,0,0-1.27-.36h-.52a2.23,2.23,0,0,0-.52.08Zm9.8-2.11h-3.16V1715h-1.12v-7h1.12v2.93H736V1708h1.12v7H736Zm4.53-1.23q.34-.06.64-.08l.59,0a3.83,3.83,0,0,1,1.2.16,2,2,0,0,1,.78.44,1.53,1.53,0,0,1,.41.67,2.77,2.77,0,0,1,.12.82,2.24,2.24,0,0,1-.71,1.85,3.64,3.64,0,0,1-2.29.57q-.9,0-1.86-.08v-7h1.12Zm0,3.35a6.21,6.21,0,0,0,1,.08,1.74,1.74,0,0,0,1.23-.34,1.47,1.47,0,0,0,0-1.9,1.6,1.6,0,0,0-1.2-.36h-.52a2.23,2.23,0,0,0-.52.08Zm4.84-6h1.12v7h-1.12Zm7.78,2.86,0-.87h0l-.57.9-3.15,4.12h-.64v-7H750v4.27l0,.83H750l.55-.87,3.15-4.23h.66v7H753.2Zm-2.76-5.68a1.44,1.44,0,0,0,.48.9,1.3,1.3,0,0,0,.79.25,1.28,1.28,0,0,0,.8-.27,1.4,1.4,0,0,0,.48-.87l.84.27a1.81,1.81,0,0,1-.72,1.25,2.35,2.35,0,0,1-1.42.43,2.92,2.92,0,0,1-.75-.1,2.2,2.2,0,0,1-.67-.29,1.85,1.85,0,0,1-.5-.5,1.8,1.8,0,0,1-.28-.73Z" transform="translate(-9)" style="fill:#fff"/><text transform="translate(746.54 1715)" style="font-size:14px;fill:#fff;font-family:PTSans-Regular, PT Sans"> </text><path d="M765.26,1714.54a3.06,3.06,0,0,1-1,.47,4.44,4.44,0,0,1-1.2.16,3.26,3.26,0,0,1-1.37-.26,2.34,2.34,0,0,1-.92-.74,3.15,3.15,0,0,1-.52-1.16,6.52,6.52,0,0,1-.16-1.51,4.16,4.16,0,0,1,.78-2.72,2.76,2.76,0,0,1,2.25-.94,5.31,5.31,0,0,1,1.14.1,3.49,3.49,0,0,1,.85.3l-.32,1a3.06,3.06,0,0,0-.71-.29,3.24,3.24,0,0,0-.84-.11q-2,0-2,2.69a4.77,4.77,0,0,0,.1,1,2.49,2.49,0,0,0,.35.85,1.83,1.83,0,0,0,.64.6,2,2,0,0,0,1,.22,2.49,2.49,0,0,0,.9-.15,2.55,2.55,0,0,0,.65-.35Zm1.56-6a4,4,0,0,1,1.24-.48,6.93,6.93,0,0,1,1.48-.15,2.92,2.92,0,0,1,1.17.2,1.63,1.63,0,0,1,.67.51,1.75,1.75,0,0,1,.31.69,3.79,3.79,0,0,1,.08.76q0,.84,0,1.64t0,1.51q0,.52,0,1a4.63,4.63,0,0,0,.15.85h-.83l-.29-1h-.07a2.32,2.32,0,0,1-.32.38,2,2,0,0,1-.46.34,2.87,2.87,0,0,1-.62.24,3,3,0,0,1-.8.1,2.42,2.42,0,0,1-.83-.14,1.94,1.94,0,0,1-.67-.4,1.86,1.86,0,0,1-.44-.62,2,2,0,0,1-.16-.83,1.94,1.94,0,0,1,.25-1,1.82,1.82,0,0,1,.71-.66,3.5,3.5,0,0,1,1.09-.35,8.68,8.68,0,0,1,1.41-.1h.39l.39,0q0-.42,0-.76a1.5,1.5,0,0,0-.31-1.08,1.58,1.58,0,0,0-1.12-.31,3.91,3.91,0,0,0-.51,0l-.56.1a4.58,4.58,0,0,0-.55.16,2.72,2.72,0,0,0-.46.21Zm2,5.61a2.17,2.17,0,0,0,.7-.11,2,2,0,0,0,.53-.27,1.69,1.69,0,0,0,.37-.36,1.59,1.59,0,0,0,.22-.38v-1.16l-.4,0h-.4a7.2,7.2,0,0,0-.85,0,2.69,2.69,0,0,0-.73.18,1.28,1.28,0,0,0-.5.36.89.89,0,0,0-.19.58,1,1,0,0,0,.35.8A1.29,1.29,0,0,0,768.81,1714.13Zm9.57-3.28,0-.87h0l-.57.9-3.15,4.12H774v-7h1.12v4.27l0,.83h.06l.55-.87,3.15-4.23h.66v7h-1.12Zm-2.76-5.68a1.44,1.44,0,0,0,.48.9,1.3,1.3,0,0,0,.79.25,1.28,1.28,0,0,0,.8-.27,1.4,1.4,0,0,0,.48-.87l.84.27a1.81,1.81,0,0,1-.72,1.25,2.35,2.35,0,0,1-1.42.43,2.92,2.92,0,0,1-.75-.1,2.2,2.2,0,0,1-.66-.29,1.85,1.85,0,0,1-.5-.5,1.8,1.8,0,0,1-.28-.73Zm10.62,3.81h-2.18v6h-1.12v-6h-2.18v-1h5.49Z" transform="translate(-9)" style="fill:#fff"/><text transform="translate(776.98 1715)" style="font-size:14px;fill:#fff;font-family:PTSans-Regular, PT Sans"> </text><line x1="678.56" y1="1734.5" x2="693.34" y2="1734.5" style="fill:none;stroke:#fff;stroke-miterlimit:10"/><line x1="696.46" y1="1734.5" x2="760.44" y2="1734.5" style="fill:none;stroke:#fff;stroke-miterlimit:10"/><path d="M692.85,1726h-3.09v6h-1.12v-7H694v7h-1.12Zm3.3-.46a4,4,0,0,1,1.24-.48,6.93,6.93,0,0,1,1.48-.15,2.92,2.92,0,0,1,1.17.2,1.63,1.63,0,0,1,.67.51,1.75,1.75,0,0,1,.31.69,3.79,3.79,0,0,1,.08.76q0,.84,0,1.64t0,1.51q0,.52,0,1a4.62,4.62,0,0,0,.15.85h-.83l-.29-1H700a2.32,2.32,0,0,1-.32.39,2,2,0,0,1-.45.34,2.87,2.87,0,0,1-.62.25,3,3,0,0,1-.8.1,2.42,2.42,0,0,1-.83-.14,1.94,1.94,0,0,1-.67-.4,1.86,1.86,0,0,1-.44-.62,2,2,0,0,1-.16-.83,1.94,1.94,0,0,1,.25-1,1.82,1.82,0,0,1,.71-.66,3.5,3.5,0,0,1,1.09-.35,8.68,8.68,0,0,1,1.41-.1h.39l.39,0q0-.42,0-.76a1.5,1.5,0,0,0-.31-1.08,1.58,1.58,0,0,0-1.12-.31,3.91,3.91,0,0,0-.51,0l-.56.1a4.58,4.58,0,0,0-.55.16,2.71,2.71,0,0,0-.46.21Zm2,5.61a2.17,2.17,0,0,0,.7-.11,2,2,0,0,0,.53-.27,1.69,1.69,0,0,0,.37-.36,1.59,1.59,0,0,0,.22-.38v-1.16l-.4,0h-.4a7.2,7.2,0,0,0-.85,0,2.69,2.69,0,0,0-.73.18,1.28,1.28,0,0,0-.5.36.89.89,0,0,0-.19.58,1,1,0,0,0,.35.8A1.29,1.29,0,0,0,698.14,1731.13Zm5.2-6.13h.77l.21.84h.06a2.14,2.14,0,0,1,.83-.75,2.95,2.95,0,0,1,3.26.57,4.23,4.23,0,0,1,.69,2.7,5.1,5.1,0,0,1-.23,1.59,3.47,3.47,0,0,1-.65,1.2,2.85,2.85,0,0,1-1,.76,3.21,3.21,0,0,1-1.32.27,4.19,4.19,0,0,1-.82-.06,3.31,3.31,0,0,1-.65-.22v2.91h-1.12Zm2.83.81a1.63,1.63,0,0,0-1.13.37,2.07,2.07,0,0,0-.58,1.13v3.47a1.87,1.87,0,0,0,.57.3,2.83,2.83,0,0,0,.85.11,1.85,1.85,0,0,0,1.53-.72,3.38,3.38,0,0,0,.57-2.12,5.12,5.12,0,0,0-.1-1,2.29,2.29,0,0,0-.32-.8,1.51,1.51,0,0,0-.56-.51A1.79,1.79,0,0,0,706.17,1725.81Zm9.11.17H713.1v6H712v-6h-2.18v-1h5.49Zm5.61,1.88,0-.87h0l-.57.9-3.15,4.12h-.64v-7h1.12v4.27l0,.83h.06l.55-.87,3.15-4.23H722v7h-1.12Zm7.78,0,0-.87h0l-.57.9-3.15,4.12h-.64v-7h1.12v4.27l0,.83h.06l.55-.87,3.15-4.23h.66v7h-1.12Z" transform="translate(-9)" style="fill:#fff"/><text transform="translate(722.01 1732)" style="font-size:14px;fill:#fff;font-family:PTSans-Regular, PT Sans"> </text><path d="M741.12,1723.24H738.2q-.14,2.8-.37,4.65a10.52,10.52,0,0,1-.69,2.89,2.45,2.45,0,0,1-.73,1,1.51,1.51,0,0,1-.91.31,2.34,2.34,0,0,1-.43,0,1.78,1.78,0,0,1-.35-.11l.15-1a1,1,0,0,0,.29,0,.84.84,0,0,0,.47-.15,1.56,1.56,0,0,0,.46-.57,5.37,5.37,0,0,0,.37-1,12.51,12.51,0,0,0,.31-1.6q.13-1,.22-2.3t.13-3.13h5.18v9.8h-1.16Zm11.46,10.57h-.8l-.21-1.81H744.7l-.21,1.81h-.81V1731h1a4.25,4.25,0,0,0,.34-.72,10.44,10.44,0,0,0,.46-1.62q.23-1.06.41-2.65a33.75,33.75,0,0,0,.18-3.77h5.24V1731h1.27Zm-2.44-2.84v-7.73h-3q0,1.54-.16,2.77t-.29,2.18a14,14,0,0,1-.38,1.63,8.12,8.12,0,0,1-.43,1.15Zm9.84-7.73h-4.52V1732H754.3v-9.8h6.85v9.8H760Zm3.68-.94a7.07,7.07,0,0,1,1.15-.17q.62,0,1.22,0a7,7,0,0,1,1.31.13,3.55,3.55,0,0,1,1.21.46,2.6,2.6,0,0,1,.89.92,2.94,2.94,0,0,1,.34,1.5,3.23,3.23,0,0,1-.32,1.51,2.83,2.83,0,0,1-.85,1,3.46,3.46,0,0,1-1.22.55,5.92,5.92,0,0,1-1.41.17h-.57l-.34,0-.24,0V1732h-1.16Zm2.39.8h-.7a2.39,2.39,0,0,0-.53.07v4.06a.73.73,0,0,0,.22,0h.87a4.94,4.94,0,0,0,.95-.09,2.45,2.45,0,0,0,.85-.33,1.74,1.74,0,0,0,.61-.67,2.34,2.34,0,0,0,.23-1.11,1.93,1.93,0,0,0-.22-1,1.74,1.74,0,0,0-.57-.62,2.42,2.42,0,0,0-.8-.33A4.19,4.19,0,0,0,766.06,1723.1Z" transform="translate(-9)" style="fill:#fff"/></g></g><g id="2cba512d-b2ff-4c92-9a60-63f46fde3634" data-name="О РО"><g id="6f4d6871-7f9b-4bcb-9650-79517b818b5e" data-name="Карта"><rect id="febe5a62-a9cf-4ce4-8d35-6f6919adf27c" data-name="Место для вставки карты" x="260" y="640" width="920" height="380" style="fill:#d8d8d8"/><rect id="f18e3a34-df4c-44d2-a2bf-5d9ee7b1bc15" data-name="Фон адреса" x="560" y="640" width="320" height="160" style="fill:#fff"/><g id="da531092-f500-4435-bc71-28b2dbb37e7f" data-name="Иконки"><g id="f664a776-c9c1-4418-bfba-b625305c39a0" data-name="Иконка Места"><ellipse cx="587.5" cy="666.52" rx="3.1" ry="3.1" style="fill:none;stroke:#010101;stroke-linecap:round;stroke-linejoin:round"/><path d="M590,666.58c0,5.8,6.5,11.42,6.5,11.42s6.5-5.62,6.5-11.42a6.5,6.5,0,1,0-13,0Z" transform="translate(-9)" style="fill:none;stroke:#010101;stroke-linecap:round;stroke-linejoin:round"/></g><path id="537c03af-a9e4-477c-bdbe-c41033f41f13" data-name="Иконка телефона" d="M593.1,720l-2.77,2.33,0,0c-1.21,1.19,1.19,5.48,5.41,9.63s8.68,6.6,9.89,5.42l0,0,2.37-2.73-4-3.36-2.79,1.83-6.52-6.41,1.86-2.75Z" transform="translate(-9)" style="fill:none;stroke:#010101;stroke-linecap:round;stroke-linejoin:round"/></g><text transform="translate(609 730.8)" style="font-size:14px;fill:#231300;font-family:PTSans-Regular, PT Sans"><tspan style="letter-spacing:-0.06497628348214286em">К</tspan><tspan x="7.63" y="0">онтактные</tspan><tspan x="71.36" y="0" style="letter-spacing:-0.023018973214285716em"> </tspan><tspan x="74.77" y="0" style="letter-spacing:-0.015973772321428572em">т</tspan><tspan x="80.11" y="0" style="letter-spacing:-0.022007533482142856em">е</tspan><tspan x="86.91" y="0">л</tspan><tspan x="93.95" y="0" style="letter-spacing:-0.010986328125em">е</tspan><tspan x="100.91" y="0">фоны</tspan><tspan x="134.73" y="0" style="letter-spacing:-0.07798549107142858em">,</tspan><tspan x="136.37" y="0" xml:space="preserve"> емэйл</tspan></text><text transform="translate(609 673.8)" style="font-size:14px;fill:#231300;font-family:PTSans-Regular, PT Sans"><tspan style="letter-spacing:-0.005998883928571429em">А</tspan><tspan x="8.11" y="0">др</tspan><tspan x="23.25" y="0" style="letter-spacing:-0.010986328125em">е</tspan><tspan x="30.21" y="0">с</tspan><tspan x="36.53" y="0" style="letter-spacing:-0.07798549107142858em">,</tspan><tspan x="38.16" y="0" xml:space="preserve"> часы приема</tspan><tspan x="120.79" y="0" style="letter-spacing:-0.07798549107142858em">,</tspan><tspan x="122.43" y="0" xml:space="preserve"> часы раб</tspan><tspan x="181.28" y="0" style="letter-spacing:-0.015973772321428572em">о</tspan><tspan x="188.56" y="0">ты</tspan></text></g><g id="57f21c16-2ce5-48c2-931f-d1b7be5e45f4" data-name="Блок информации"><rect id="ca79e42f-6104-4497-9519-3767612fa534" data-name="Фон" x="260" y="220" width="920" height="425" style="fill:#fff"/><g id="d49257f1-82c8-4afb-8aca-b72081f83e51" data-name="Лица отделения"><g id="3623c1ae-a167-4853-9392-e2bcbe785b38" data-name="Линия с лицами людей"><g id="7b447bb1-f27e-47f4-8970-e1a03f4009af" data-name="Линия с фотографиями"><circle id="d5497fdd-ea9c-46f2-933e-cad807256fa1" data-name="Круг для фотографии человека" cx="770" cy="510" r="30" style="fill:#d8d8d8"/><circle id="79a76d3b-a0df-4854-94b0-a1c2710c5322" data-name="Круг для фотографии человека" cx="770" cy="410" r="30" style="fill:#d8d8d8"/><circle id="04f03b03-fe39-43fb-ae91-88ddfe56eac0" data-name="Круг для фотографии человека" cx="770" cy="310" r="30" style="fill:#d8d8d8"/></g><g id="0d6f963f-e58f-4dd0-a6ab-bb3535512a5d" data-name="Линия с ФИО"><text transform="translate(810 289.8)" style="font-size:14px;font-family:PTSans-Bold, PT Sans"><tspan style="fill:#558ccb;font-weight:700">Иванов Иван <tspan x="0" y="16.8">Иванович</tspan></tspan><tspan style="font-size:12px;font-family:PTSans-Regular, PT Sans"><tspan x="0" y="31.2" style="letter-spacing:-0.023030598958333332em">Д</tspan><tspan x="7.75" y="31.2" style="letter-spacing:-0.005940755208333333em">о</tspan><tspan x="14.11" y="31.2">лжно</tspan><tspan x="40.97" y="31.2" style="letter-spacing:-0.016031901041666668em">с</tspan><tspan x="46.19" y="31.2">т</tspan><tspan x="50.95" y="31.2" style="letter-spacing:-0.034993489583333336em">ь</tspan></tspan></text><text transform="translate(810 389.8)" style="font-size:14px;font-family:PTSans-Bold, PT Sans"><tspan style="fill:#558ccb;font-weight:700">Иванов Иван <tspan x="0" y="16.8">Иванович</tspan></tspan><tspan style="font-size:12px;font-family:PTSans-Regular, PT Sans"><tspan x="0" y="31.2" style="letter-spacing:-0.023030598958333332em">Д</tspan><tspan x="7.75" y="31.2" style="letter-spacing:-0.005940755208333333em">о</tspan><tspan x="14.11" y="31.2">лжно</tspan><tspan x="40.97" y="31.2" style="letter-spacing:-0.016031901041666668em">с</tspan><tspan x="46.19" y="31.2">т</tspan><tspan x="50.95" y="31.2" style="letter-spacing:-0.034993489583333336em">ь</tspan></tspan></text><text transform="translate(810 489.8)" style="font-size:14px;font-family:PTSans-Bold, PT Sans"><tspan style="fill:#558ccb;font-weight:700">Иванов Иван <tspan x="0" y="16.8">Иванович</tspan></tspan><tspan style="font-size:12px;font-family:PTSans-Regular, PT Sans"><tspan x="0" y="31.2" style="letter-spacing:-0.023030598958333332em">Д</tspan><tspan x="7.75" y="31.2" style="letter-spacing:-0.005940755208333333em">о</tspan><tspan x="14.11" y="31.2">лжно</tspan><tspan x="40.97" y="31.2" style="letter-spacing:-0.016031901041666668em">с</tspan><tspan x="46.19" y="31.2">т</tspan><tspan x="50.95" y="31.2" style="letter-spacing:-0.034993489583333336em">ь</tspan></tspan></text></g></g><g id="5a0c2b86-68f0-4b79-b71c-8e4112ad6584" data-name="Линия с лицами людей"><g id="58c3a0e1-eda1-4777-88fa-a14c0ad5cc2d" data-name="Линия с фотографиями"><circle id="3eb18d4b-af41-4019-9867-a8ae3bd367de" data-name="Круг для фотографии человека" cx="990" cy="510" r="30" style="fill:#d8d8d8"/><circle id="feaaa9d0-cf20-420a-8c4a-7282133ae964" data-name="Круг для фотографии человека" cx="990" cy="410" r="30" style="fill:#d8d8d8"/><circle id="bfa2fd1a-1eb1-4a1b-9bbb-a3c6a92df975" data-name="Круг для фотографии человека" cx="990" cy="310" r="30" style="fill:#d8d8d8"/></g><g id="6ef90bf2-cf4a-441c-89db-190e1f09e941" data-name="Линия с ФИО"><text transform="translate(1030 289.8)" style="font-size:14px;font-family:PTSans-Bold, PT Sans"><tspan style="fill:#558ccb;font-weight:700">Иванов Иван <tspan x="0" y="16.8">Иванович</tspan></tspan><tspan style="font-size:12px;font-family:PTSans-Regular, PT Sans"><tspan x="0" y="31.2" style="letter-spacing:-0.023030598958333332em">Д</tspan><tspan x="7.75" y="31.2" style="letter-spacing:-0.005940755208333333em">о</tspan><tspan x="14.11" y="31.2">лжно</tspan><tspan x="40.97" y="31.2" style="letter-spacing:-0.016031901041666668em">с</tspan><tspan x="46.19" y="31.2">т</tspan><tspan x="50.95" y="31.2" style="letter-spacing:-0.034993489583333336em">ь</tspan></tspan></text><text transform="translate(1030 389.8)" style="font-size:14px;font-family:PTSans-Bold, PT Sans"><tspan style="fill:#558ccb;font-weight:700">Иванов Иван <tspan x="0" y="16.8">Иванович</tspan></tspan><tspan style="font-size:12px;font-family:PTSans-Regular, PT Sans"><tspan x="0" y="31.2" style="letter-spacing:-0.023030598958333332em">Д</tspan><tspan x="7.75" y="31.2" style="letter-spacing:-0.005940755208333333em">о</tspan><tspan x="14.11" y="31.2">лжно</tspan><tspan x="40.97" y="31.2" style="letter-spacing:-0.016031901041666668em">с</tspan><tspan x="46.19" y="31.2">т</tspan><tspan x="50.95" y="31.2" style="letter-spacing:-0.034993489583333336em">ь</tspan></tspan></text><text transform="translate(1030 489.8)" style="font-size:14px;font-family:PTSans-Bold, PT Sans"><tspan style="fill:#558ccb;font-weight:700">Иванов Иван <tspan x="0" y="16.8">Иванович</tspan></tspan><tspan style="font-size:12px;font-family:PTSans-Regular, PT Sans"><tspan x="0" y="31.2" style="letter-spacing:-0.023030598958333332em">Д</tspan><tspan x="7.75" y="31.2" style="letter-spacing:-0.005940755208333333em">о</tspan><tspan x="14.11" y="31.2">лжно</tspan><tspan x="40.97" y="31.2" style="letter-spacing:-0.016031901041666668em">с</tspan><tspan x="46.19" y="31.2">т</tspan><tspan x="50.95" y="31.2" style="letter-spacing:-0.034993489583333336em">ь</tspan></tspan></text></g></g><text transform="translate(740 252.6)" style="font-size:18px;fill:#558ccb;font-family:PTSans-Bold, PT Sans;font-weight:700">ЛИЦ<tspan x="35.48" y="0" style="letter-spacing:-0.043999565972222224em">А</tspan><tspan x="45.57" y="0" style="letter-spacing:-0.012966579861111112em"> </tspan><tspan x="49.89" y="0" style="letter-spacing:-0.039008246527777776em">О</tspan><tspan x="61.25" y="0" style="letter-spacing:-0.028971354166666668em">Т</tspan><tspan x="70.95" y="0">ДЕЛЕНИЯ</tspan></text></g><g id="c9df32b3-5222-4cf1-b436-c08b1f80edae" data-name="Описание РО"><text transform="translate(280 252.6)" style="font-size:18px;fill:#538dcb;font-family:PTSans-Bold, PT Sans;font-weight:700"><tspan style="letter-spacing:-0.012993706597222222em">О</tspan><tspan x="11.83" y="0" xml:space="preserve"> РЕГИОН</tspan><tspan x="80.08" y="0" style="letter-spacing:-0.025987413194444444em">А</tspan><tspan x="90.5" y="0">ЛЬНОМ</tspan><tspan x="150.14" y="0" style="letter-spacing:-0.012966579861111112em"> </tspan><tspan x="154.46" y="0" style="letter-spacing:-0.038981119791666664em">О</tspan><tspan x="165.82" y="0" style="letter-spacing:-0.028998480902777776em">Т</tspan><tspan x="175.52" y="0">ДЕЛЕНИИ</tspan></text><text transform="translate(280 289.8)" style="font-size:14px;fill:#231300;font-family:PTSans-Regular, PT Sans">Описание регионально<tspan x="142.13" y="0" style="letter-spacing:-0.016008649553571428em">г</tspan><tspan x="147.07" y="0">о </tspan><tspan x="158.31" y="0" style="letter-spacing:-0.016008649553571428em">о</tspan><tspan x="165.59" y="0" style="letter-spacing:-0.02099609375em">т</tspan><tspan x="170.85" y="0">д</tspan><tspan x="178.43" y="0" style="letter-spacing:-0.02197265625em">е</tspan><tspan x="185.23" y="0">ления</tspan><tspan x="221.24" y="0" style="letter-spacing:-0.07798549107142858em">,</tspan><tspan x="222.88" y="0" xml:space="preserve" style="letter-spacing:-0.00003487723214285714em"> ра</tspan><tspan x="241.13" y="0" style="letter-spacing:-0.022984095982142856em">с</tspan><tspan x="247.13" y="0">сказ об </tspan><tspan x="295.73" y="0" style="letter-spacing:-0.015973772321428572em">о</tspan><tspan x="303.01" y="0" style="letter-spacing:-0.02099609375em">т</tspan><tspan x="308.28" y="0">д</tspan><tspan x="315.85" y="0" style="letter-spacing:-0.022007533482142856em">е</tspan><tspan x="322.65" y="0">лении</tspan><tspan x="359.66" y="0" style="letter-spacing:-0.07798549107142858em">,</tspan><tspan x="361.29" y="0"> </tspan><tspan x="0" y="16.8">чем занимае</tspan><tspan x="78.15" y="16.8" style="letter-spacing:-0.015973772321428572em">т</tspan><tspan x="83.48" y="16.8" style="letter-spacing:-0.00003487723214285714em">ся </tspan><tspan x="100.18" y="16.8" style="letter-spacing:-0.015973772321428572em">о</tspan><tspan x="107.46" y="16.8" style="letter-spacing:-0.02099609375em">т</tspan><tspan x="112.73" y="16.8">д</tspan><tspan x="120.3" y="16.8" style="letter-spacing:-0.02197265625em">е</tspan><tspan x="127.1" y="16.8">ление</tspan><tspan x="163.57" y="16.8" style="letter-spacing:-0.07802036830357142em">,</tspan><tspan x="165.21" y="16.8" xml:space="preserve" style="letter-spacing:0.00003487723214285714em"> как помогае</tspan><tspan x="243.76" y="16.8" style="letter-spacing:-0.031005859375em">т</tspan><tspan x="248.89" y="16.8" style="letter-spacing:-0.025006975446428572em"> </tspan><tspan x="252.27" y="16.8">л</tspan><tspan x="259.32" y="16.8" style="letter-spacing:-0.005998883928571429em">ю</tspan><tspan x="269.3" y="16.8">дям и с ка</tspan><tspan x="331.36" y="16.8" style="letter-spacing:-0.010986328125em">к</tspan><tspan x="337.9" y="16.8">о</tspan><tspan x="345.4" y="16.8" style="letter-spacing:-0.015973772321428572em">г</tspan><tspan x="350.34" y="16.8">о </tspan><tspan x="361.59" y="16.8" style="letter-spacing:-0.016008649553571428em">г</tspan><tspan x="366.53" y="16.8" style="letter-spacing:-0.005998883928571429em">о</tspan><tspan x="373.95" y="16.8">да </tspan><tspan x="0" y="33.6">раб</tspan><tspan x="22.02" y="33.6" style="letter-spacing:-0.015973772321428572em">о</tspan><tspan x="29.3" y="33.6">тае</tspan><tspan x="48.92" y="33.6" style="letter-spacing:-0.07802036830357142em">т.</tspan><tspan x="55.28" y="33.6" xml:space="preserve"> В</tspan><tspan x="67.2" y="33.6" style="letter-spacing:-0.024972098214285716em"> </tspan><tspan x="70.59" y="33.6">данном</tspan><tspan x="116.76" y="33.6" style="letter-spacing:-0.023018973214285716em"> </tspan><tspan x="120.17" y="33.6" style="letter-spacing:-0.015973772321428572em">т</tspan><tspan x="125.51" y="33.6">е</tspan><tspan x="132.62" y="33.6" style="letter-spacing:-0.010986328125em">к</tspan><tspan x="139.16" y="33.6" style="letter-spacing:-0.016008649553571428em">ст</tspan><tspan x="150.58" y="33.6">е нужно исп</tspan><tspan x="224.99" y="33.6" style="letter-spacing:-0.005998883928571429em">о</tspan><tspan x="232.41" y="33.6">льзоват</tspan><tspan x="279.11" y="33.6" style="letter-spacing:-0.03498186383928571em">ь</tspan><tspan x="285.12" y="33.6" xml:space="preserve"> в</tspan><tspan x="295.84" y="33.6" style="letter-spacing:-0.022984095982142856em">с</tspan><tspan x="301.83" y="33.6" style="letter-spacing:-0.00003487723214285714em">е имеющи</tspan><tspan x="364.72" y="33.6" style="letter-spacing:-0.010986328125em">е</tspan><tspan x="371.68" y="33.6" style="letter-spacing:0.00003487723214285714em">ся </tspan><tspan x="0" y="50.4">рекламные</tspan><tspan x="68.3" y="50.4" style="letter-spacing:-0.022984095982142856em"> </tspan><tspan x="71.72" y="50.4" style="letter-spacing:-0.016008649553571428em">т</tspan><tspan x="77.05" y="50.4" style="letter-spacing:-0.02197265625em">е</tspan><tspan x="83.86" y="50.4">хн</tspan><tspan x="98.63" y="50.4" style="letter-spacing:-0.005998883928571429em">о</tspan><tspan x="106.05" y="50.4">логии и преимущ</tspan><tspan x="212.08" y="50.4" style="letter-spacing:-0.010986328125em">е</tspan><tspan x="219.04" y="50.4" style="letter-spacing:-0.016008649553571428em">с</tspan><tspan x="225.13" y="50.4">тва па</tspan><tspan x="262.79" y="50.4" style="letter-spacing:-0.015973772321428572em">р</tspan><tspan x="270.14" y="50.4">тии</tspan><tspan x="290.99" y="50.4" style="letter-spacing:-0.07798549107142858em">,</tspan><tspan x="292.62" y="50.4" xml:space="preserve"> ради</tspan><tspan x="326.1" y="50.4" style="letter-spacing:-0.023018973214285716em"> </tspan><tspan x="329.51" y="50.4" style="letter-spacing:-0.015973772321428572em">т</tspan><tspan x="334.85" y="50.4">о</tspan><tspan x="342.35" y="50.4" style="letter-spacing:-0.016008649553571428em">г</tspan><tspan x="347.29" y="50.4" style="letter-spacing:-0.011962890625em">о</tspan><tspan x="354.63" y="50.4" style="letter-spacing:-0.07798549107142858em">,</tspan><tspan x="356.27" y="50.4" style="letter-spacing:-0.00003487723214285714em"> </tspan><tspan x="0" y="67.2">ч</tspan><tspan x="6.86" y="67.2" style="letter-spacing:-0.016008649553571428em">т</tspan><tspan x="12.19" y="67.2">обы ч</tspan><tspan x="47.04" y="67.2" style="letter-spacing:-0.022007533482142856em">е</tspan><tspan x="53.84" y="67.2">ловек понял</tspan><tspan x="129.16" y="67.2" style="letter-spacing:-0.07798549107142858em">,</tspan><tspan x="130.8" y="67.2" xml:space="preserve"> ч</tspan><tspan x="141.4" y="67.2" style="letter-spacing:-0.015973772321428572em">т</tspan><tspan x="146.73" y="67.2">о </tspan><tspan x="157.97" y="67.2" style="letter-spacing:-0.015973772321428572em">о</tspan><tspan x="165.25" y="67.2" style="letter-spacing:-0.02099609375em">т</tspan><tspan x="170.52" y="67.2">д</tspan><tspan x="178.09" y="67.2" style="letter-spacing:-0.02197265625em">е</tspan><tspan x="184.89" y="67.2">ление раб</tspan><tspan x="247.12" y="67.2" style="letter-spacing:-0.016008649553571428em">о</tspan><tspan x="254.4" y="67.2">тае</tspan><tspan x="274.02" y="67.2" style="letter-spacing:-0.030970982142857144em">т</tspan><tspan x="279.14" y="67.2" xml:space="preserve" style="letter-spacing:-0.00003487723214285714em"> ради не</tspan><tspan x="331.02" y="67.2" style="letter-spacing:-0.016008649553571428em">г</tspan><tspan x="335.97" y="67.2">о и </tspan><tspan x="358.59" y="67.2" style="letter-spacing:-0.015973772321428572em">гот</tspan><tspan x="376.14" y="67.2">ово </tspan><tspan x="0" y="84">помогат</tspan><tspan x="49.19" y="84" style="letter-spacing:-0.03498186383928571em">ь</tspan><tspan x="55.2" y="84" xml:space="preserve"> ем</tspan><tspan x="75.08" y="84" style="letter-spacing:-0.03599330357142857em">у</tspan><tspan x="81.1" y="84" xml:space="preserve"> в</tspan><tspan x="91.82" y="84" style="letter-spacing:-0.025006975446428572em"> </tspan><tspan x="95.21" y="84">любы</tspan><tspan x="129.06" y="84" style="letter-spacing:-0.026994977678571428em">х</tspan><tspan x="135.9" y="84" xml:space="preserve"> вопросах</tspan><tspan x="197.16" y="84" style="letter-spacing:-0.07798549107142858em">,</tspan><tspan x="198.8" y="84" xml:space="preserve"> связанны</tspan><tspan x="259.96" y="84" style="letter-spacing:-0.026994977678571428em">х</tspan><tspan x="266.79" y="84" xml:space="preserve"> с исп</tspan><tspan x="302.03" y="84" style="letter-spacing:-0.005998883928571429em">о</tspan><tspan x="309.45" y="84">лни</tspan><tspan x="331.7" y="84" style="letter-spacing:-0.015973772321428572em">т</tspan><tspan x="337.03" y="84" style="letter-spacing:-0.022007533482142856em">е</tspan><tspan x="343.83" y="84">льной вла</tspan><tspan x="404.79" y="84">-</tspan><tspan x="0" y="100.8" style="letter-spacing:-0.016008649553571428em">с</tspan><tspan x="6.09" y="100.8">ть</tspan><tspan x="18.14" y="100.8" style="letter-spacing:-0.011997767857142858em">ю</tspan><tspan x="28.04" y="100.8" style="letter-spacing:-0.07798549107142858em">.</tspan><tspan x="29.95" y="100.8" style="letter-spacing:-0.026994977678571428em"> </tspan><tspan x="33.31" y="100.8">Данный</tspan><tspan x="81.62" y="100.8" style="letter-spacing:-0.023018973214285716em"> </tspan><tspan x="85.03" y="100.8" style="letter-spacing:-0.015973772321428572em">т</tspan><tspan x="90.37" y="100.8">е</tspan><tspan x="97.48" y="100.8" style="letter-spacing:-0.010986328125em">к</tspan><tspan x="104.02" y="100.8" style="letter-spacing:-0.016008649553571428em">с</tspan><tspan x="110.11" y="100.8" style="letter-spacing:-0.030970982142857144em">т</tspan><tspan x="115.23" y="100.8" xml:space="preserve"> очен</tspan><tspan x="148.01" y="100.8" style="letter-spacing:-0.03498186383928571em">ь</tspan><tspan x="154.01" y="100.8" xml:space="preserve"> ва</tspan><tspan x="171.68" y="100.8" style="letter-spacing:-0.007010323660714286em">ж</tspan><tspan x="180.81" y="100.8">ен</tspan><tspan x="195.48" y="100.8" style="letter-spacing:-0.07798549107142858em">,</tspan><tspan x="197.12" y="100.8" style="letter-spacing:-0.022984095982142856em"> </tspan><tspan x="200.53" y="100.8">так как пр</tspan><tspan x="262.59" y="100.8" style="letter-spacing:-0.022007533482142856em">е</tspan><tspan x="269.4" y="100.8">д</tspan><tspan x="276.97" y="100.8" style="letter-spacing:-0.015973772321428572em">с</tspan><tspan x="283.06" y="100.8">тавляе</tspan><tspan x="323.35" y="100.8" style="letter-spacing:-0.031005859375em">т</tspan><tspan x="328.48" y="100.8" xml:space="preserve"> ч</tspan><tspan x="339.07" y="100.8" style="letter-spacing:-0.02197265625em">е</tspan><tspan x="345.88" y="100.8">ловек</tspan><tspan x="381.21" y="100.8" style="letter-spacing:-0.03599330357142857em">у</tspan><tspan x="387.23" y="100.8"> </tspan><tspan x="0" y="117.6" style="letter-spacing:-0.015973772321428572em">о</tspan><tspan x="7.28" y="117.6" style="letter-spacing:-0.02099609375em">т</tspan><tspan x="12.54" y="117.6" style="letter-spacing:-0.00003487723214285714em">д</tspan><tspan x="20.12" y="117.6" style="letter-spacing:-0.02197265625em">е</tspan><tspan x="26.92" y="117.6">ление и </tspan><tspan x="78.51" y="117.6" style="letter-spacing:-0.010986328125em">к</tspan><tspan x="85.05" y="117.6">оманд</tspan><tspan x="123.66" y="117.6" style="letter-spacing:-0.03599330357142857em">у</tspan><tspan x="129.68" y="117.6"> </tspan><tspan x="133.42" y="117.6" style="letter-spacing:-0.015973772321428572em">о</tspan><tspan x="140.7" y="117.6" style="letter-spacing:-0.02099609375em">т</tspan><tspan x="145.96" y="117.6" style="letter-spacing:-0.00003487723214285714em">д</tspan><tspan x="153.54" y="117.6" style="letter-spacing:-0.02197265625em">е</tspan><tspan x="160.34" y="117.6">ления</tspan><tspan x="196.35" y="117.6" style="letter-spacing:-0.07798549107142858em">,</tspan><tspan x="197.99" y="117.6"> </tspan><tspan x="201.72" y="117.6" style="letter-spacing:-0.010986328125em">к</tspan><tspan x="208.26" y="117.6" style="letter-spacing:-0.016008649553571428em">от</tspan><tspan x="220.88" y="117.6">орая раб</tspan><tspan x="275.31" y="117.6" style="letter-spacing:-0.015973772321428572em">о</tspan><tspan x="282.59" y="117.6">тае</tspan><tspan x="302.2" y="117.6" style="letter-spacing:-0.031005859375em">т</tspan><tspan x="307.32" y="117.6" xml:space="preserve"> ради не</tspan><tspan x="359.21" y="117.6" style="letter-spacing:-0.016008649553571428em">г</tspan><tspan x="364.15" y="117.6" style="letter-spacing:-0.011962890625em">о</tspan><tspan x="371.48" y="117.6" style="letter-spacing:-0.07798549107142858em">.</tspan><tspan x="373.39" y="117.6" style="letter-spacing:-0.031005859375em"> </tspan><tspan x="376.69" y="117.6" style="letter-spacing:-0.12799944196428573em">Т</tspan><tspan x="382.67" y="117.6">е</tspan><tspan x="389.78" y="117.6" style="letter-spacing:-0.010986328125em">к</tspan><tspan x="396.32" y="117.6" style="letter-spacing:-0.015973772321428572em">с</tspan><tspan x="402.41" y="117.6" style="letter-spacing:-0.031005859375em">т</tspan><tspan x="407.53" y="117.6"> </tspan><tspan x="0" y="134.4">не</tspan><tspan x="14.67" y="134.4" style="letter-spacing:-0.025006975446428572em"> </tspan><tspan x="18.06" y="134.4">д</tspan><tspan x="25.63" y="134.4" style="letter-spacing:-0.005998883928571429em">о</tspan><tspan x="33.05" y="134.4">л</tspan><tspan x="40.1" y="134.4" style="letter-spacing:-0.006975446428571429em">ж</tspan><tspan x="49.22" y="134.4">ен быт</tspan><tspan x="89.93" y="134.4" style="letter-spacing:-0.03498186383928571em">ь</tspan><tspan x="95.94" y="134.4" xml:space="preserve"> очен</tspan><tspan x="128.71" y="134.4" style="letter-spacing:-0.03498186383928571em">ь</tspan><tspan x="134.72" y="134.4" xml:space="preserve"> маленьким</tspan><tspan x="206.01" y="134.4" style="letter-spacing:-0.07798549107142858em">,</tspan><tspan x="207.65" y="134.4" xml:space="preserve"> но и не</tspan><tspan x="256.24" y="134.4" style="letter-spacing:-0.025006975446428572em"> </tspan><tspan x="259.63" y="134.4">д</tspan><tspan x="267.2" y="134.4" style="letter-spacing:-0.005998883928571429em">о</tspan><tspan x="274.62" y="134.4">л</tspan><tspan x="281.66" y="134.4" style="letter-spacing:-0.006975446428571429em">ж</tspan><tspan x="290.79" y="134.4">ен заг</tspan><tspan x="327.48" y="134.4" style="letter-spacing:-0.011997767857142858em">р</tspan><tspan x="334.89" y="134.4">ужат</tspan><tspan x="363.14" y="134.4" style="letter-spacing:-0.03498186383928571em">ь</tspan><tspan x="369.15" y="134.4" xml:space="preserve"> ч</tspan><tspan x="379.74" y="134.4" style="letter-spacing:-0.022007533482142856em">е</tspan><tspan x="386.55" y="134.4">ло</tspan><tspan x="401.09" y="134.4">-</tspan><tspan x="0" y="151.2">века и мешат</tspan><tspan x="81.8" y="151.2" style="letter-spacing:-0.03498186383928571em">ь</tspan><tspan x="87.81" y="151.2" xml:space="preserve"> е</tspan><tspan x="98.66" y="151.2" style="letter-spacing:-0.016008649553571428em">г</tspan><tspan x="103.6" y="151.2">о восприятию понимат</tspan><tspan x="243.73" y="151.2" style="letter-spacing:-0.03498186383928571em">ь</tspan><tspan x="249.74" y="151.2" style="letter-spacing:-0.022984095982142856em"> </tspan><tspan x="253.16" y="151.2" style="letter-spacing:-0.016008649553571428em">т</tspan><tspan x="258.49" y="151.2" style="letter-spacing:-0.011997767857142858em">о</tspan><tspan x="265.83" y="151.2" style="letter-spacing:-0.07798549107142858em">,</tspan><tspan x="267.46" y="151.2" xml:space="preserve"> ч</tspan><tspan x="278.06" y="151.2" style="letter-spacing:-0.015973772321428572em">т</tspan><tspan x="283.4" y="151.2">о прои</tspan><tspan x="324.85" y="151.2" style="letter-spacing:-0.016008649553571428em">с</tspan><tspan x="330.94" y="151.2" style="letter-spacing:-0.02197265625em">х</tspan><tspan x="337.84" y="151.2" style="letter-spacing:-0.005998883928571429em">о</tspan><tspan x="345.26" y="151.2">ди</tspan><tspan x="360.48" y="151.2" style="letter-spacing:-0.031005859375em">т</tspan><tspan x="365.6" y="151.2"> </tspan><tspan x="0" y="168">в п</tspan><tspan x="18.21" y="168" style="letter-spacing:-0.005998883928571429em">о</tspan><tspan x="25.63" y="168">лити</tspan><tspan x="53.52" y="168" style="letter-spacing:-0.010986328125em">к</tspan><tspan x="60.06" y="168">е региона и в региональном </tspan><tspan x="237.13" y="168" style="letter-spacing:-0.015973772321428572em">о</tspan><tspan x="244.41" y="168" style="letter-spacing:-0.02099609375em">т</tspan><tspan x="249.67" y="168">д</tspan><tspan x="257.25" y="168" style="letter-spacing:-0.022007533482142856em">е</tspan><tspan x="264.05" y="168">лении</tspan><tspan x="301.05" y="168" style="letter-spacing:-0.07798549107142858em">.</tspan></text></g><g id="66158752-217b-45eb-b40e-5330926ccfef" data-name="Цель и задачи партии"><g id="be307630-27a8-4138-8dde-6fe0e93914d8" data-name="Иконка документов"><polygon points="292.54 527.49 288.14 527.49 288.14 522.86 292.54 527.49" style="fill:none;stroke:#010101;stroke-linecap:round;stroke-linejoin:round"/><polygon points="298.87 524.63 294.48 524.63 294.48 520 298.87 524.63" style="fill:none;stroke:#010101;stroke-linecap:round;stroke-linejoin:round"/><path d="M297.13,522.86h-6.91a.32.32,0,0,0-.31.33v15.87a.32.32,0,0,0,.31.33h11a.32.32,0,0,0,.31-.33V527.49" transform="translate(-9)" style="fill:none;stroke:#010101;stroke-linecap:round;stroke-linejoin:round"/><path d="M303.48,536.66h4.4a.32.32,0,0,0,.31-.33V524.76" transform="translate(-9)" style="fill:none;stroke:#010101;stroke-linecap:round;stroke-linejoin:round"/><path d="M303.46,520h-6.91a.32.32,0,0,0-.31.33v.33" transform="translate(-9)" style="fill:none;stroke:#010101;stroke-linecap:round;stroke-linejoin:round"/></g><text transform="translate(310 532.6)" style="font-size:18px;fill:#231300;font-family:PTSans-Regular, PT Sans"><tspan style="letter-spacing:-0.023003472222222224em">Ц</tspan><tspan x="11.95" y="0" style="letter-spacing:-0.02197265625em">е</tspan><tspan x="20.7" y="0">л</tspan><tspan x="29.75" y="0" style="letter-spacing:-0.034993489583333336em">ь</tspan><tspan x="37.48" y="0" xml:space="preserve"> и задачи па</tspan><tspan x="134.46" y="0" style="letter-spacing:-0.016004774305555556em">р</tspan><tspan x="143.91" y="0">тии</tspan></text><text transform="translate(310 565.8)" style="font-size:14px;fill:#538dcb;font-family:PTSans-Regular, PT Sans"><tspan style="text-decoration:underline;letter-spacing:-0.06797572544642858em">У</tspan><tspan x="6.79" y="0" style="text-decoration:underline;letter-spacing:-0.016008649553571428em">с</tspan><tspan x="12.88" y="0" style="text-decoration:underline">тав па</tspan><tspan x="50.54" y="0" style="text-decoration:underline;letter-spacing:-0.015973772321428572em">р</tspan><tspan x="57.89" y="0" style="text-decoration:underline">тии</tspan><tspan x="78.73" y="0" xml:space="preserve" style="fill:#231300;letter-spacing:-0.00003487723214285714em"> (DOC</tspan><tspan x="113.12" y="0" style="fill:#231300;letter-spacing:-0.07798549107142858em">,</tspan><tspan x="114.76" y="0" xml:space="preserve" style="fill:#231300"> 300 КБ)</tspan></text><text transform="translate(310 594.8)" style="font-size:14px;fill:#538dcb;font-family:PTSans-Regular, PT Sans"><tspan style="text-decoration:underline">Программа па</tspan><tspan x="87.16" y="0" style="text-decoration:underline;letter-spacing:-0.016008649553571428em">р</tspan><tspan x="94.51" y="0" style="text-decoration:underline">тии</tspan><tspan x="115.36" y="0" xml:space="preserve" style="fill:#231300;letter-spacing:0.00003487723214285714em"> (DOC</tspan><tspan x="149.74" y="0" style="fill:#231300;letter-spacing:-0.07802036830357142em">,</tspan><tspan x="151.38" y="0" xml:space="preserve" style="fill:#231300"> 300 </tspan></text></g></g></g></g></svg>