<svg xmlns="http://www.w3.org/2000/svg" viewBox="0 0 60 60"><title>Asset 4documents</title><polygon points="38 23 24 23 24 9 38 23" style="fill:none;stroke:#fff;stroke-linecap:round;stroke-linejoin:round;stroke-width:2px"/><polygon points="59 15 45 15 45 1 59 15" style="fill:none;stroke:#fff;stroke-linecap:round;stroke-linejoin:round;stroke-width:2px"/><path d="M24,9H2a1,1,0,0,0-1,1V58a1,1,0,0,0,1,1H37a1,1,0,0,0,1-1V23" style="fill:none;stroke:#fff;stroke-linecap:round;stroke-linejoin:round;stroke-width:2px"/><path d="M44,51H58a1,1,0,0,0,1-1V15" style="fill:none;stroke:#fff;stroke-linecap:round;stroke-linejoin:round;stroke-width:2px"/><path d="M45,1H23a1,1,0,0,0-1,1V3" style="fill:none;stroke:#fff;stroke-linecap:round;stroke-linejoin:round;stroke-width:2px"/></svg>