<svg xmlns="http://www.w3.org/2000/svg" viewBox="0 0 38.91 28.88"><title>Asset 2group</title><path d="M21.15,19.73,10.6,25.5v1.92a1,1,0,0,0,.93,1h26a1,1,0,0,0,.93-1V25.5h0L27.87,19.73" style="fill:none;stroke:#000;stroke-linecap:round;stroke-linejoin:round"/><path d="M27.87,19.73c3.82-2.29,3.82-8.25,3.82-8.25V6C31.17,2.87,27.66.5,24.5.5h0C21.35.5,17.83,2.87,17.32,6v5.49s0,5.79,3.84,8.25" style="fill:none;stroke:#000;stroke-linecap:round;stroke-linejoin:round"/><path d="M11,19.73.5,25.5v1.92a1,1,0,0,0,.93,1H7.69" style="fill:none;stroke:#000;stroke-linecap:round;stroke-linejoin:round"/><path d="M16.83.94A7.33,7.33,0,0,0,14.4.5h0C11.25.5,7.73,2.87,7.22,6v5.49s0,5.79,3.84,8.25" style="fill:none;stroke:#000;stroke-linecap:round;stroke-linejoin:round"/></svg>